<?xml version="1.0" encoding="UTF-8"?>
<!DOCTYPE svg PUBLIC "-//W3C//DTD SVG 1.1//EN" "http://www.w3.org/Graphics/SVG/1.1/DTD/svg11.dtd">
<!-- Creator: CorelDRAW X8 -->
<svg xmlns="http://www.w3.org/2000/svg" xml:space="preserve" width="108.373mm" height="48.2598mm" version="1.1" style="shape-rendering:geometricPrecision; text-rendering:geometricPrecision; image-rendering:optimizeQuality; fill-rule:evenodd; clip-rule:evenodd"
viewBox="0 0 10837 4826"
 xmlns:xlink="http://www.w3.org/1999/xlink">
 <defs>
  <style type="text/css">
   <![CDATA[
    .fil0 {fill:#0B0A52}
    .fil1 {fill:#0B0A52;fill-rule:nonzero}
   ]]>
  </style>
 </defs>
 <g id="Слой_x0020_1">
  <metadata id="CorelCorpID_0Corel-Layer"/>
  <path class="fil0" d="M9863 1821c-36,21 -655,21 -692,0 18,-12 -25,-7 25,-18l609 -1c52,0 40,-10 58,19zm-1049 -43c18,31 34,-1 0,44 -33,-33 -15,-17 0,-44zm-72 3c31,21 42,16 1,39 -23,-29 -13,-12 -1,-39zm-60 -3c16,30 30,1 0,44 -37,-34 -16,-18 0,-44zm-69 0c18,30 36,-1 0,44 -30,-33 -13,-19 0,-44zm-61 3c14,31 23,0 -1,39 -43,-19 -22,-23 1,-39zm-2968 28c24,-13 6,-14 35,1 -33,16 -6,24 -35,-1zm-47 0c36,-27 9,-18 35,1 -25,18 0,30 -35,-1zm-27 18c-24,-33 -18,-7 0,-34 16,32 21,-1 0,34zm-46 0c-22,-30 -16,-8 0,-34 17,32 22,0 0,34zm-61 -18c16,-11 -5,-31 36,1 -42,34 -21,11 -36,-1zm-43 0c30,-24 5,-19 33,1 -26,19 -10,22 -33,-1zm-2210 -11c-21,-41 -20,-162 0,-204 21,25 13,-13 17,48 1,14 -1,44 -1,60 1,130 0,78 -16,96zm-71 0c-25,-32 -15,-58 -15,-108 0,-51 -9,-61 15,-96 23,37 23,167 0,204zm-72 -1c-20,-21 -17,16 -18,-107 0,-127 2,-77 18,-95 16,36 16,165 0,202zm-83 0c-17,-37 -16,-163 0,-202 16,17 13,-19 18,47l0 121c-10,65 4,11 -18,34zm4246 -22c-42,24 -454,23 -493,-1 18,-17 -24,-19 49,-23l408 0c52,6 21,-3 36,24zm-4795 13c-24,-43 -23,-140 0,-186l36 4c14,40 15,140 0,181l-36 1zm-103 -177l42 1 -4 169 -41 -1 3 -169zm7055 147c-120,0 -133,16 -158,-20 57,-33 267,-12 349,-12 79,0 291,-21 346,12 -20,31 -20,21 -72,20l-465 0zm-3742 5c10,-11 -14,-46 32,-7l-32 7zm-75 6c-22,-28 -16,-10 0,-34 13,25 16,7 0,34zm-46 0c-23,-31 -15,-10 0,-34 18,32 22,-1 0,34zm-33 -5c-34,-4 -17,8 -24,-23 64,16 -52,-37 18,5 35,21 -1,-13 6,18zm-71 -14c30,-22 7,-17 32,1 -26,21 -3,28 -32,-1zm-1364 13c-6,-72 54,-75 49,2l-49 -2zm-40 -11c-33,18 4,17 -56,10l0 -36c45,-24 45,-21 56,26zm-103 13l-47 -3 0 -36c28,-16 10,-15 54,-6l-7 45zm-88 -3l-53 -1 0 -35c28,-17 12,-13 53,-7l0 43zm1310 -54l-2 36 -580 -2 0 -33c50,-14 528,-14 582,-1zm3739 -15c17,30 34,2 0,45 -33,-33 -12,-22 0,-45zm-132 1c15,29 30,2 0,44 -36,-32 -15,-20 0,-44zm-69 0c18,30 36,0 0,43 -30,-32 -11,-22 0,-43zm-64 1c12,25 26,4 1,42 -39,-31 -15,-20 -1,-42zm-2256 -21c46,-4 46,-10 88,1l3 44 -95 2 4 -47zm-313 43c5,-57 9,-51 61,-40l2 46 -63 -6zm1722 -15c48,-25 379,-23 426,0 -46,24 -382,26 -426,0zm-2133 -22c-10,63 -71,4 0,0zm-189 -3c11,21 28,27 -16,30 2,-41 -16,-12 16,-30zm1669 21c-64,0 -343,20 -374,-20 44,-28 457,-27 495,0 -17,27 10,19 -48,21 -22,1 -50,-1 -73,-1zm-1439 7c-33,-4 -17,8 -23,-23 57,14 -48,-34 17,5 34,21 -2,-13 6,18zm-100 6c-23,-29 -16,-11 0,-34 13,25 15,7 0,34zm-46 1c-21,-28 -15,-13 0,-35 15,26 17,6 0,35zm-33 -7c-34,-4 -18,9 -24,-23 34,9 14,-15 24,23zm3739 -39c38,-26 116,-14 169,-14 77,0 486,-15 524,14 -34,28 -114,16 -167,16l-453 0c-51,1 -42,8 -73,-16zm-5121 -36l-4 39 -49 -3c-5,-56 1,-62 53,-36zm-94 26c-32,18 4,16 -55,10l0 -35c45,-27 45,-23 55,25zm-102 12l-47 -2 0 -35c27,-18 7,-18 54,-7l-7 44zm-88 -45l0 43 -53 -1 2 -46 51 4zm5049 -13c18,32 34,0 0,45 -33,-33 -15,-18 0,-45zm-72 3c30,21 43,18 1,40 -23,-29 -12,-12 -1,-40zm-60 -3c17,32 30,2 0,45 -36,-33 -16,-17 0,-45zm-69 1c18,30 36,-1 0,43 -30,-33 -12,-21 0,-43zm-64 1c15,29 26,3 1,42 -40,-32 -17,-18 -1,-42zm-2964 9c65,6 8,63 0,0zm-205 -2c28,55 -54,30 0,0zm163 27c28,-19 -41,-16 23,-23 -9,30 12,12 -23,23zm-33 6c-23,-28 -15,-12 0,-34 12,24 14,7 0,34zm-46 1c-24,-31 -15,-13 0,-35 15,26 16,6 0,35zm-33 -7c-33,-4 -17,9 -24,-23 33,9 13,-14 24,23zm532 -66c17,37 15,21 0,57 -21,-35 -19,-23 0,-57zm-952 58c-95,1 -490,12 -520,-19 18,-26 -42,-27 126,-26 111,0 404,-16 460,12 -19,43 11,32 -66,33zm4507 -31c-81,0 -291,21 -348,-12 19,-13 -23,-8 26,-19l609 0c52,0 40,-10 58,19 -54,33 -267,12 -345,12zm-1815 -12c44,-28 245,-12 336,-13 118,-2 79,6 85,22 -85,0 -363,17 -421,-9zm-976 17c-62,-3 -22,5 -51,-17 17,-11 -18,-17 50,-19l204 0c44,0 88,1 131,0 47,0 86,-12 109,19 -35,28 -30,17 -121,16l-262 0c-16,0 -46,2 -60,1zm-1140 -49c34,3 23,-13 24,25 -38,1 -22,7 -24,-25zm-18 9c-18,31 -15,31 -31,-1 34,-18 9,-12 31,1zm-133 9c-27,15 -18,14 -33,-10 29,-14 16,-27 33,10zm74 13c-24,-28 -15,-13 0,-34 12,24 13,7 0,34zm-46 1c-24,-31 -15,-14 0,-35 18,32 19,-1 0,35zm3350 -69c15,26 34,2 0,45 -35,-35 -9,-28 0,-45zm-70 4c40,17 24,26 -1,40 -16,-23 -22,-12 1,-40zm-62 -3c13,25 29,3 0,43 -36,-32 -13,-22 0,-43zm-69 0c17,28 35,1 -1,43 -31,-34 -8,-26 1,-43zm-63 3c29,34 15,18 2,40 -26,-13 -38,-24 -2,-40zm-4501 31c-37,20 -21,19 -57,0 13,-47 4,-55 57,-27l0 27zm-93 -27c-11,52 10,43 -56,36l2 -46c52,-3 19,-8 54,10zm-97 36l-53 0 -1 -35c27,-18 5,-19 55,-7l-1 42zm-93 -43l-1 44 -53 -1 2 -47 52 4zm-1391 35c-24,-42 -24,-141 1,-185l34 4c17,40 16,139 0,181l-35 0zm-102 -176l41 0 -3 169 -43 -1 5 -168zm7054 145c-129,0 -135,16 -158,-20 43,-21 657,-20 694,0 -20,36 -64,20 -167,20l-369 0zm-3714 -9c-25,15 -17,13 -29,-11 28,-12 18,-15 29,11zm-44 -10c-17,32 -15,33 -30,-5l30 5zm-133 1c-20,39 -18,25 -32,-8l32 8zm-73 -7c40,-1 15,-9 26,16 -27,14 -24,16 -26,-16zm-2141 30c-3,-9 -27,-179 12,-201 3,9 26,177 -12,201zm-82 0c0,-59 -15,-152 10,-201 28,30 16,132 16,205l-26 -4zm-49 3c-28,-12 -19,24 -29,-38 -1,-11 -5,-138 17,-167 29,43 12,146 12,205zm-87 0c-24,-36 -14,-61 -15,-111 0,-121 4,-78 18,-93 13,28 16,165 -3,204zm4165 -27c-46,25 -446,24 -492,-1 16,-15 -25,-19 49,-23l335 1c139,-1 95,-4 108,23zm-1659 24c-24,-29 -15,-15 0,-35 16,30 16,1 0,35zm-46 1c-26,-32 -15,-15 0,-36 18,33 18,-1 0,36zm-453 -9c-110,1 -466,15 -521,-15 20,-19 -29,-29 67,-30 110,-1 464,-16 520,15 -21,40 6,30 -66,30zm2698 -47c56,-15 388,-21 418,12l-398 1c-37,-6 -16,0 -20,-13zm1105 -39c15,26 34,2 0,45 -36,-36 -8,-29 0,-45zm-72 4c28,20 44,17 1,39 -23,-28 -12,-12 -1,-39zm-60 -3c12,22 31,2 0,44 -38,-35 -10,-28 0,-44zm-69 0c14,25 36,1 -1,44 -31,-35 -7,-29 1,-44zm-64 43c-29,-43 -17,-12 0,-41 15,36 20,1 0,41zm-2936 -33c-12,30 1,26 -29,11 10,-6 -8,-32 29,-11zm-45 0c-12,26 -2,26 -31,9 15,-32 22,-13 31,-9zm-57 21c-29,-54 -2,-31 -1,-34 11,28 23,2 1,34zm-47 1c-14,-27 -15,-3 0,-36 12,27 29,-4 0,36zm-28 -21c-16,34 -3,24 -32,10 11,-7 -9,-33 32,-10zm-46 9c-54,29 -29,-52 0,0zm-1341 2c-37,18 -21,18 -57,0 13,-48 4,-55 57,-27l0 27zm-95 -13c-16,30 16,26 -54,22l2 -45c69,-5 36,-9 52,23zm-95 18c-45,11 -25,12 -55,-5l1 -25c26,-19 3,-21 55,-7l-1 37zm-93 -38l-1 42 -53 -1 2 -47 52 6zm5405 8c38,-27 656,-27 692,0 -38,32 -293,16 -345,16 -58,0 -305,19 -347,-16zm-3208 -40c17,37 16,21 0,57 -21,-35 -18,-24 0,-57zm-69 0c20,37 18,22 0,57 -14,-35 -13,-22 0,-57zm893 35c-50,0 -86,13 -112,-19 39,-30 21,-17 124,-17l262 0c53,-1 75,-11 109,17 -27,38 -321,18 -383,19zm-1175 -23l-26 0c4,-43 21,-37 26,0zm-46 -1c-39,-3 -14,5 -23,-23 21,9 15,-21 23,23zm-102 5c-15,-27 -15,-3 0,-35 11,25 30,-5 0,35zm-59 -12c14,-14 -6,-38 32,-1 -34,21 -11,12 -32,1zm-17 8c-62,-2 -7,-60 0,0zm-313 6c-86,0 -547,17 -583,-14 18,-33 -34,-28 137,-28l322 0c156,-1 118,-9 124,42zm3739 -60c13,24 35,2 0,46 -35,-36 -9,-28 0,-46zm-61 5c22,32 17,25 -10,40 -21,-29 -21,-29 10,-40zm-71 -4c12,24 30,3 0,44 -36,-32 -12,-24 0,-44zm-72 0c25,25 37,20 1,44 -28,-29 -16,-13 -1,-44zm-68 4c35,12 28,11 9,40 -26,-14 -30,-9 -9,-40zm629 5c31,-27 32,-18 84,-17l537 -1c11,0 38,0 47,2 29,7 6,-1 24,16 -38,24 -653,24 -692,0zm-5122 1c-36,18 -21,17 -57,0l4 -39 50 2 3 37zm-94 0c-35,16 -19,19 -57,0l4 -37c64,-4 44,-15 53,37zm-96 6c-44,10 -24,11 -55,-6l3 -39 50 2 2 43zm-93 -39l-1 42 -53 -1 2 -47 52 6zm1845 -7c2,44 9,22 -26,26 3,-36 -9,-26 26,-26zm-44 29l-31 -14c3,-1 24,-56 31,14zm-56 -1c-17,-27 -19,-1 -1,-33 15,32 22,2 1,33zm-47 1c-16,-27 -16,-4 0,-35 16,33 24,2 0,35zm-56 -6c15,-23 -8,-13 23,-22 -18,51 -6,20 -23,22zm-19 2c-43,-1 -19,10 -29,-21 38,-12 25,-5 29,21zm1398 -6c-104,0 -75,9 -111,-15 17,-12 -19,-18 50,-21l204 1c50,0 216,-17 240,20 -45,33 -280,14 -383,15zm-4388 -18c-46,-14 -31,-18 -31,-81 0,-128 15,-82 31,-91 23,36 17,40 16,91 0,47 9,52 -16,81zm-327 -170l42 0 -4 170 -41 -3 3 -167zm6742 115c13,23 35,1 0,44 -36,-35 -9,-27 0,-44zm-70 4c38,17 25,26 -1,40 -17,-23 -21,-12 1,-40zm-59 -4c16,35 30,2 -2,45 -40,-22 -18,-26 2,-45zm-75 0c24,24 38,20 2,44 -30,-30 -17,-12 -2,-44zm717 30c-129,0 -135,17 -156,-20 41,-20 653,-20 691,0 -16,33 -17,21 -70,21l-465 -1zm-4316 5c-110,0 -465,15 -519,-13 26,-36 -45,-30 137,-30 118,0 391,-20 448,15 -22,38 3,28 -66,28zm572 -25c15,-13 -4,-35 32,-1 -35,28 -11,15 -32,1zm-45 0c29,-26 5,-23 33,-1 -22,15 2,27 -33,1zm-28 15c-19,-29 -18,-4 0,-35 15,32 22,1 0,35zm-46 0c-18,-27 -16,-6 0,-35 16,33 24,1 0,35zm-105 -15c28,-26 2,-26 33,-1 -25,17 -1,25 -33,1zm-1311 -11c-35,16 -20,16 -56,0l4 -40 50 3 2 37zm-93 -27c-10,47 -9,50 -57,27l4 -37c57,-5 19,-10 53,10zm-95 14c-18,29 14,26 -55,20l12 -48c65,9 25,-9 43,28zm-96 19c-41,7 -23,10 -53,-7l3 -39 52 6 -2 40zm-530 -1c-33,-14 -19,-58 -19,-101 0,-45 -14,-87 25,-102l-6 203zm-155 1c-28,-31 -28,-172 0,-205 24,33 24,172 0,205zm-72 -1c-30,-14 -17,-59 -17,-101 0,-44 -13,-87 17,-102 16,30 16,172 0,203zm-83 1c-6,-11 -32,-187 10,-203 3,7 26,184 -10,203zm2970 -60c18,35 20,20 0,57 -15,-35 -12,-23 0,-57zm820 40c-56,-6 -23,1 -37,-23 52,-29 281,-11 384,-12 139,-1 95,-4 108,24 -51,25 -185,10 -251,10l-204 1zm2100 -69c13,23 36,1 0,45 -37,-37 -8,-30 0,-45zm-70 4c37,16 26,26 -1,40 -18,-23 -20,-13 1,-40zm-59 -3c16,34 31,2 -2,44 -40,-22 -17,-26 2,-44zm-75 0c24,23 38,20 1,44 -29,-30 -16,-12 -1,-44zm-60 3c26,33 15,18 1,40 -27,-14 -34,-24 -1,-40zm-2967 30c14,-12 -5,-35 32,0 -36,29 -12,15 -32,0zm-46 0c26,-22 8,-21 35,0 -24,16 1,28 -35,0zm-27 16c-19,-29 -18,-5 0,-35 15,31 21,3 0,35zm-46 0c-21,-31 -18,-2 0,-34 17,32 23,1 0,34zm-58 -6c17,-21 -7,-14 25,-24 -18,55 -5,21 -25,24zm-47 -10c29,-25 -1,-26 33,0 -24,17 -9,20 -33,0zm-285 -63l0 38 -582 -5 1 -37 581 4zm-1026 16c-35,16 -20,16 -56,0l4 -40 51 3 1 37zm-97 -38c3,53 3,63 -54,37l15 -41 39 4zm-91 26c-19,28 12,24 -55,19l12 -48c66,9 26,-10 43,29zm-96 18c-40,6 -23,9 -53,-6l2 -39 50 -1 1 46zm1819 -18c15,-12 -4,-32 33,0 -38,33 -19,12 -33,0zm-46 0c35,-29 8,-20 35,0 -25,18 1,30 -35,0zm-27 17c-24,-32 -18,-6 0,-34 16,33 21,-1 0,34zm-46 0c-22,-32 -15,-9 0,-34 17,32 22,0 0,34zm-61 -17c13,-10 -7,-34 36,0 -43,34 -23,10 -36,0zm-44 0c31,-26 6,-21 34,0 -27,20 -7,23 -34,0zm1318 5l-1 -34 433 0c55,0 32,-7 60,17 -27,24 -2,17 -60,17l-432 0zm2494 -29c31,-27 32,-19 84,-18l441 0c94,0 133,-13 167,18 -37,25 -654,25 -692,0zm-357 -35c14,25 35,3 0,45 -37,-36 -8,-29 0,-45zm-70 4c35,16 28,26 -1,40 -19,-24 -16,-16 1,-40zm-194 0c24,31 17,16 1,40 -29,-14 -34,-24 -1,-40zm63 42c-24,-41 -15,-15 0,-44 30,67 11,22 0,44zm-3075 -47c37,-27 10,-16 33,0 -26,20 -2,29 -33,0zm-28 19c-24,-33 -17,-9 0,-35 16,32 21,-1 0,35zm-46 -1c-22,-31 -15,-9 0,-34 17,32 22,0 0,34zm-59 -18c24,-14 5,-15 33,0 -28,16 -10,19 -33,0zm-46 0c33,-25 8,-18 33,0 -25,20 -9,22 -33,0zm-730 -14c-144,0 -113,13 -138,-22 29,-21 -9,-21 66,-22l382 1c140,0 112,-13 137,21 -23,33 -5,22 -65,22l-382 0zm-581 -9c-35,14 -21,14 -55,-1 11,-57 -19,-32 47,-44l8 45zm-97 -39c2,52 3,62 -51,38 9,-54 -10,-43 51,-38zm-91 27c-20,28 -8,33 -57,11l14 -42c66,10 25,-11 43,31zm-96 -29l1 49 -54 0 2 -48 51 -1zm6028 38c-122,-1 -570,14 -622,-10 20,-13 -40,-23 73,-22 120,1 571,-13 620,10 -17,34 -18,23 -71,22zm-2623 -10c-40,27 -454,25 -492,0 22,-18 -43,-21 122,-21 44,0 87,0 131,0 85,0 218,-16 239,21zm1645 -47c14,26 35,3 0,45 -37,-36 -9,-28 0,-45zm-70 5c35,16 28,25 -1,39 -18,-23 -19,-13 1,-39zm-134 -4c21,21 40,20 2,44 -29,-29 -17,-12 -2,-44zm-60 4c25,31 17,16 1,40 -29,-15 -33,-25 -1,-40zm132 41c-27,-43 -18,-11 0,-43l8 21c7,43 8,-9 -8,22zm-981 -124l28 -14 394 1 3 12c24,33 -12,27 23,28 11,-28 8,-28 33,-47l2 501c-54,8 -44,6 -72,40l-403 15 -12 7c-34,-34 -23,-17 -40,-12 31,33 34,-49 20,-82 -7,17 -12,4 10,6 1,-17 24,-23 -30,-78 -32,-32 8,-6 -14,-5 52,-7 42,-28 97,-34l395 3 -26 -38 -368 1c-44,-8 -2,12 -38,-31 10,-17 0,-11 26,-18l403 5c-29,-30 30,-20 -57,-29l-155 2c-68,0 -135,0 -203,0l415 -5c-21,-41 -349,-19 -409,-18l-16 -45c7,-19 -6,-10 22,-18l404 7 -82 -17c121,2 77,-11 78,-36 -55,-13 -172,0 -245,0 -260,0 -147,15 -226,24l-3 -117 46 -8zm1470 42c39,-25 654,-25 692,0 -23,21 27,7 -35,18l-489 -1c-76,0 -135,12 -168,-17zm-2384 8c-138,1 -94,5 -110,-20 42,-27 455,-26 492,0 -16,26 9,19 -47,21l-335 -1zm-2737 -46l2 42c-40,23 -41,11 -59,9l-1 -54c48,-15 26,-13 58,3zm-152 2c30,-17 8,-18 59,-5l-8 53c-57,8 -22,10 -53,-9l2 -39zm-93 3c27,-19 3,-19 57,-9l-1 49c-52,15 -28,14 -58,-7l2 -33zm-93 5c21,-21 -10,-23 56,-14l-1 50c-61,12 -33,10 -57,-12l2 -24zm5102 -17c36,38 22,19 0,44 -26,-26 -30,-11 0,-44zm-70 2c34,15 29,25 -1,40 -19,-24 -17,-16 1,-40zm-194 0c25,31 17,17 1,40 -29,-14 -32,-25 -1,-40zm-3475 2l-1 36 -581 -3 0 -38 582 5zm3607 39c-27,-43 -18,-9 0,-43 15,36 20,4 0,43zm-69 1c-24,-41 -15,-15 0,-44 30,67 11,22 0,44zm1083 -83c-30,-18 -32,-63 -1,-79 20,29 18,50 1,79zm-70 2c-24,-38 -18,-45 0,-84 23,38 29,47 0,84zm-132 -1c-17,-30 -19,-51 1,-80 30,16 29,60 -1,80zm-60 2c-23,-32 -28,-50 0,-84 26,33 22,52 0,84zm-82 -50c4,-44 5,-24 22,-32 17,28 15,50 0,79 -18,-10 -26,5 -22,-47zm-109 48c-29,-20 -31,-63 -1,-80 22,29 19,50 1,80zm-429 -48c13,23 36,2 0,45 -38,-38 -8,-29 0,-45zm-70 5c34,15 29,25 -1,39 -19,-24 -17,-16 1,-39zm-62 -3c31,35 23,18 1,44 -30,-20 -28,-19 -1,-44zm-132 2c24,31 17,17 1,40 -30,-14 -32,-24 -1,-40zm-1874 31c31,-24 4,-17 63,-18l322 1c119,-1 83,-5 108,17 -28,23 -6,16 -59,17l-323 0c-118,0 -79,7 -111,-17zm-2628 -35l-7 44 -48 -9 3 -40 52 5zm-94 -4l-1 46 -57 -7 3 -41 55 2zm-149 6c26,-19 1,-21 58,-9l-3 49c-51,14 -27,12 -56,-7l1 -33zm-93 4c21,-21 -9,-24 57,-13l-3 50c-60,12 -32,9 -55,-12l1 -25zm4901 40c-23,-39 -15,-13 0,-43 30,67 11,22 0,43zm-3538 -64l-2 36 -580 -3 0 -32c51,-15 528,-15 582,-1zm2833 24c-48,0 -74,13 -97,-18 35,-22 154,-25 188,0 -16,31 -48,18 -91,18zm906 -87c35,37 22,19 0,43 -28,-26 -25,-15 0,-43zm-70 2c33,15 29,25 -1,40 -20,-25 -16,-17 1,-40zm-203 0c34,13 31,9 10,40 -28,-13 -27,-10 -10,-40zm-1372 31c-42,25 -448,24 -492,0 18,-17 -26,-20 49,-23l335 1c138,-1 95,-4 108,22zm1513 11c-26,-44 -19,-9 0,-44 1,3 5,8 6,10 12,61 9,5 -6,34zm-4682 -66l44 0 2 48 -53 -6 7 -42zm-103 5c29,-17 -5,-16 57,-10l0 54c-49,14 -26,12 -56,-5l-1 -39zm-93 3c28,-20 4,-21 59,-8l-3 49c-52,12 -28,11 -55,-8l-1 -33zm-93 4c24,-22 -4,-24 58,-12l-4 50c-61,10 -32,7 -53,-13l-1 -25zm4287 7c-36,22 -150,19 -186,0 14,-11 -26,-13 35,-21 40,-4 138,-9 151,21zm816 -81c31,34 24,17 0,44 -29,-28 -23,-18 0,-44zm-71 2c32,15 32,24 1,40 -22,-26 -15,-19 -1,-40zm-192 0c19,26 19,13 0,40 -32,-15 -30,-25 0,-40zm-1502 39c-65,0 -342,21 -375,-20 46,-31 314,-16 387,-16 113,-1 79,-7 110,16 -24,34 -71,20 -122,20zm1633 3c-25,-43 -20,-6 0,-44 15,37 20,5 0,44zm-69 -1c-23,-40 -15,-12 0,-43 30,68 11,22 0,43zm-4614 -77l46 0 0 48 -52 -5 6 -43zm-103 5c32,-20 27,-13 58,-11l0 54c-48,14 -25,13 -56,-5l-2 -38zm-93 2c28,-20 2,-23 60,-7l-4 49c-52,11 -27,10 -54,-9l-2 -33zm-93 4c25,-22 -2,-24 60,-11l-5 50c-60,9 -32,7 -53,-14l-2 -25zm5034 -59c32,16 30,25 -1,40 -20,-25 -15,-17 1,-40zm-193 0c20,27 18,14 0,41 -32,-15 -30,-26 0,-41zm131 42c-25,-42 -20,-6 0,-44 15,37 20,5 0,44zm-69 0c-24,-41 -15,-13 0,-44l9 22c9,48 7,-6 -9,22zm-1886 -5c-61,-4 -22,4 -51,-17 18,-12 -19,-17 50,-20 22,-1 50,1 73,1 60,0 345,-19 371,19 -37,29 -372,22 -443,17zm-3016 -91l58 6 -5 52 -58 -8 5 -50zm285 52c-5,-71 52,-74 49,3l-49 -3zm-45 2l-45 4 -6 -44c55,-26 53,-12 51,40zm-89 -13c-34,20 8,13 -45,16 -17,-32 -15,1 -8,-50 62,-4 40,-12 53,34zm3260 -39c-84,4 -408,6 -445,-11 20,-16 -54,-25 110,-24 102,1 332,-17 382,12 -14,27 13,20 -47,23zm-3413 -83c23,-20 -13,-18 50,-16 17,33 17,12 5,57 -61,7 -31,5 -51,-15l-4 -26zm340 -1l-4 42 -50 -3c-3,-54 1,-62 54,-39zm-98 41l-51 -3 0 -37c54,-28 54,-14 51,40zm-142 -48c62,-4 40,-13 54,40l-46 9c-17,-31 -15,2 -8,-49zm3240 3c-63,-1 -341,20 -373,-19 42,-31 314,-16 385,-17 116,0 80,-6 109,17 -23,32 -74,19 -121,19zm-421 -86l7 224 0 258 0 221 -7 216 -152 5 0 73c-3,62 2,18 -23,38l-49 5c-22,-23 -8,26 -29,-40l0 74c-37,22 -11,13 -29,-3l-30 8 -41 -4 11 -60 -5 73 -59 3 -15 -18 -28 -3c-29,28 -6,13 -59,17 -72,4 -156,8 -144,-53 8,-37 40,-15 47,-31 2,-5 8,-1 12,-3l-72 -11c-93,-20 52,32 -25,-12 8,-50 3,-42 46,-59l-46 -68c25,-16 -19,-19 46,-16l28 7c35,-31 43,-18 28,-34 -67,-12 -34,6 -59,-24l0 -32 48 -1 -10 -40 -33 2c-48,-1 -19,0 -39,-9 9,-59 -10,-23 40,-58 -66,-30 -67,-28 -13,-101 -48,-35 -23,4 -34,-57l9 49 -62 2c-21,-36 -20,-11 -9,-50l4 259c-1,57 14,46 -23,67l-71 8 -7 137c-41,-58 -80,-75 -143,-104l0 -156 -2 -20 -47 -9c-3,-48 2,-40 -13,-83 -15,-45 -9,-38 -12,-89l-44 -15 -3 -124 -43 -4 4 121c-39,41 -30,17 -32,106l-58 7 -1 77 -44 20 -3 272 -36 -174 -106 -12 -2 -345 -51 -6 -7 -52 -83 -4 -4 -65 -54 -17 1 -61 6 -63c-42,12 -21,-16 -35,28 0,43 14,89 -18,106l-46 5 -5 66c-72,10 -49,12 -81,-29l-47 -4c-30,-28 -19,-18 -19,-73 0,-29 0,-43 -4,-74l-163 2 3 144 -67 5c-18,32 5,31 -95,34 -33,74 23,19 -47,67l1 25 -1 262 1 102 -86 -10 -60 2c-36,44 -20,73 -18,132l3 92c-9,4 -84,41 -68,8 -34,-27 -23,7 -28,-63 -1,-18 0,-42 0,-60l-12 -906 -60 5 -11 -29 -1 -47 -107 0 -10 -28 -81 -4 -12 30 -63 2 1 61 -22 9 -104 6 -1 197 -4 975 -51 -31c5,-214 -13,-175 -17,-288l-41 -35c1,-298 20,-271 -42,-280l-4 -59 -121 51 -10 71 -100 -4 -8 -106 -49 8c-22,-23 -7,-1 -20,-27 -1,-2 -5,-26 -5,-30l-53 -7 -3 -144 -46 3 3 146 -109 1 -13 56 -82 3 -2 94 -57 10 0 70c-1,47 -15,79 -20,125 -12,110 -33,7 -29,154l-58 12 -18 66c-27,-32 -14,-45 -8,-96 -46,-66 -30,-32 -85,-70 -3,-65 8,-120 -31,-173l-67 -8 11 45c-43,-2 -24,-7 -62,11 11,-6 4,-11 4,27 -19,-21 -27,-49 -70,-26 -3,2 -8,4 -12,6 -27,15 -12,16 -52,-4l1 178 -42 -1 4 -177c-36,20 -20,-41 -31,49 0,1 2,55 2,61 2,62 18,75 -26,77l-45 -3c-20,-56 1,-116 -15,-175l13 -22c-2,-1 -5,-2 -6,-2l-30 -9c-3,-5 -9,-2 -13,-3 22,-37 17,-159 16,-163 -12,-54 20,-23 -29,-37l1 179 -32 0c-21,-43 -10,-124 -7,-176 -53,10 -16,27 -50,-22l-7 30 -2 167 -47 1c-23,17 20,22 -28,12 36,37 35,-7 -1,48l37 -1 41 -1 -2 163c54,36 14,19 53,21 -28,39 26,24 -54,35l1 182 26 -29c13,47 -3,16 33,29l1 -176 42 -1 -4 178c36,-24 13,23 28,-38l-1 -149 31 2 53 6 -4 176 -51 2 -5 44 48 -3c22,43 23,142 -1,187l-35 -5c-17,-43 -10,-106 -8,-154l-22 27c-18,-87 -3,-30 -32,-55l-2 178 49 127c-113,25 -36,-11 -116,-16 -139,-8 -218,8 -357,13 -166,6 -346,0 -514,0 -342,0 -683,0 -1025,0 17,25 -15,19 35,23l10541 -1 0 -342 -48 13 -3 23 -214 -3 -17 -132c-39,-13 -146,-6 -194,6 -92,-22 -45,-17 -135,8l-12 -83 -173 -18c-19,-62 -7,-232 -7,-307l-1 -165 -102 -4 -3 -56 0 -47c-19,-53 -40,-14 -96,-51 -38,7 -42,6 -84,-8l-7 -121 -62 2 -23 -13 0 -37c-54,-27 -20,4 -37,-35l-6 -278 -2 111c0,38 14,179 -13,186l-6 62 -80 4 -5 79 -100 -16 -106 -20 -6 238 -73 4 0 223 -59 32c-10,73 10,205 -32,258 -8,-105 3,-111 -129,-108l5 -770 -86 0 -5 -344 -222 106c-23,73 -3,160 -12,239l-94 -2 3 962c-29,-39 -24,-78 -37,-128l-197 -11 3 166c-21,-5 -8,12 -46,-19 -36,-29 -21,-89 -21,-200l0 -233 -1 -206 -115 -4 -3 -198 -300 -6 0 203 -98 8 -3 283 -134 13 0 213c-4,48 3,17 -21,34l-24 14c-11,65 -11,65 -36,124 -91,-43 -65,-118 -65,-245l-2 -219 -97 -8 -5 -396 -63 7 0 -97 -1 -237 -53 -1 -393 -3 -5 -56 -8 -1c-30,-24 -16,1 -26,-36l1 -262c-30,74 22,238 -34,358l-64 3z"/>
  <path class="fil0" d="M1969 1612l43 -1 2 168 -41 2 -4 -169zm-624 126c14,-24 -30,-23 100,-22 44,0 86,-6 122,10 -14,26 30,25 -98,24 -49,0 -86,8 -124,-12zm-295 -12c35,-16 77,-10 121,-10 67,-1 91,-20 99,34l-184 1c-70,-10 -19,-10 -36,-25zm294 -72c35,-25 -8,-16 113,-17 120,0 79,-7 110,17 -29,25 11,18 -110,18 -16,0 -47,2 -60,1 -66,-5 -17,8 -53,-19zm-295 0c27,-21 -11,-13 50,-18 13,-1 44,2 60,2 59,-1 75,-11 113,16 -2,2 33,14 -53,19l-121 0c-63,-5 -18,7 -49,-19zm296 -83c28,-14 154,-18 195,-11 21,4 15,5 26,11 -12,24 20,17 -36,24l-134 0c-78,-4 -31,-6 -51,-24zm-295 0c29,-16 127,-14 170,-13 67,3 34,-5 52,26 -39,16 -67,10 -113,10 -155,0 -88,-1 -109,-23zm294 -72c3,-2 -32,-13 53,-19l120 0c64,5 24,-2 50,19 -32,25 6,17 -110,17 -118,0 -77,9 -113,-17zm-295 0c29,-25 -5,-18 110,-18 63,0 76,-10 113,18 -3,3 -7,3 -9,7l-44 11c-48,3 -140,6 -170,-18zm296 -96l185 -1c57,8 22,-4 37,26 -36,16 -78,9 -122,10 -69,0 -87,19 -100,-35zm-296 13c30,-19 126,-17 171,-15 71,4 34,-6 53,28 -40,15 -68,9 -114,9 -155,0 -87,0 -110,-22zm296 -83c30,-14 76,-8 112,-8 71,0 98,-22 111,36l-184 1c-64,-7 -30,-12 -39,-29zm-296 11c28,-39 211,-17 222,-11 -13,56 -200,28 -222,11zm469 -61c-37,1 -150,2 -173,-10 9,-16 -25,-21 39,-27 45,-4 155,-3 184,15 -19,27 8,19 -50,22zm-359 -2c-137,1 -93,6 -110,-20 21,-14 208,-39 223,11 -28,17 -77,9 -113,9zm408 -78c-109,1 -210,20 -222,-25 32,-17 85,-9 124,-9 68,-1 88,-20 98,34zm-296 -25c-14,52 -202,25 -222,11 18,-14 -21,-18 49,-21l173 10zm186 -52c-36,-1 -83,6 -112,-8 9,-17 -25,-22 39,-28l184 1c-13,56 -41,35 -111,35zm-186 -9c-12,7 -194,28 -222,-11 22,-16 208,-41 222,11zm1128 -13c-47,-15 -31,-30 -31,-94 0,-79 -13,-68 47,-77 0,52 14,136 -16,171zm-126 -170l41 0 -3 169 -42 -1 4 -168zm-105 169c0,-34 -1,-71 -1,-105 1,-66 -6,-45 29,-66 15,20 16,7 20,54 12,142 -8,111 -48,117zm-628 -57c-41,9 -168,4 -196,-12 26,-20 -44,-21 113,-21 17,0 59,-3 73,-1 55,6 23,0 37,22 -12,8 -4,8 -27,12zm-268 -12c-52,29 -155,13 -222,13 9,-41 -30,-34 109,-34 142,0 95,-5 113,21zm-223 -83c33,-25 183,-27 223,0 -20,15 -2,10 -29,17l-144 2c-63,-4 -26,2 -50,-19zm420 -60c-49,-1 -86,8 -124,-12 25,-22 -20,-16 39,-23l181 1c-5,54 -31,34 -96,34zm-249 1c-43,2 -142,3 -170,-13 20,-20 -47,-22 109,-22 46,0 74,-7 113,10 -18,31 15,22 -52,25zm1179 -13c-46,-16 -31,-18 -31,-83 0,-107 6,-76 33,-91 22,39 26,140 -2,174zm-127 -4c-4,-33 -4,-69 -4,-103 0,-69 -11,-55 36,-66 20,45 14,118 8,171l-40 -2zm-99 2c-6,-35 -5,-58 -5,-93 -1,-110 14,-70 28,-78 36,33 18,155 12,171l-35 0zm-96 0c-19,-40 -12,-120 -5,-169l41 -1 -2 171 -34 -1zm-102 -170l35 1c8,48 15,130 -5,170l-37 -2 7 -169zm-631 106c25,-36 -51,-35 113,-35 124,1 80,-7 110,18 -27,22 13,14 -50,18l-173 -1zm-295 -17c31,-25 122,-22 170,-19 87,6 50,16 53,19 -36,26 -126,21 -174,18 -62,-4 -23,3 -49,-18zm408 -61c-143,0 -96,4 -112,-23 53,-27 154,-12 221,-11 -8,55 -43,34 -109,34zm-298 0c-141,0 -95,4 -110,-23 50,-29 158,-12 223,-13 -8,46 30,36 -113,36zm346 -76c-99,2 -150,14 -160,-30 12,-5 193,-25 223,12 -18,14 -6,17 -63,18zm-334 -1c-116,-1 -85,12 -123,-17 17,-11 -17,-17 50,-20l173 8c-10,46 -45,29 -100,29zm497 -180l-23 -6 -24 -106 -104 -4 -6 -98 -86 0 -7 99 -154 -1 -22 35 -195 3 -1 157 -101 17 2 31 0 262 0 215 0 262 -1 157 -69 15c-36,7 -86,6 -124,8l-4 172c-103,8 16,-28 -129,-25 -53,-80 -19,-19 -57,-48l-25 -13 3 -84 -80 -12 -162 5 -8 16 -11 25 -113 6 -27 35 6 304c342,0 683,0 1025,0 168,0 348,6 514,0 139,-5 218,-21 357,-13 80,5 3,41 116,16l-49 -127 -38 -1 -2 -167 42 -10c29,25 14,-32 32,55l22 -27 -4 -25 5 -44 2 -184 -31 -2 1 149c-15,61 8,14 -28,38l-39 -1c-36,-13 -20,18 -33,-29l-26 29 -44 -12 0 -158 43 -12c80,-11 26,4 54,-35 -39,-2 1,15 -53,-21l-44 5 5 -167 -37 1c36,-55 37,-11 1,-48 48,10 5,5 28,-12l10 -171 39 3 7 -30c34,49 -3,32 50,22l38 -3c49,14 17,-17 29,37 1,4 6,126 -16,163 4,1 10,-2 13,3l30 9c1,0 4,1 6,2l-13 22 50 -10c28,49 16,133 10,188 44,-2 28,-15 26,-77 0,-6 -2,-60 -2,-61 11,-90 -5,-29 31,-49l37 0c40,20 25,19 52,4 4,-2 9,-4 12,-6 43,-23 51,5 70,26 0,-38 7,-33 -4,-27 38,-18 19,-13 62,-11l-11 -45c19,-66 11,-444 6,-536l-134 24 -10 -48 -103 -5 -7 -62 -35 -4c-22,-20 -17,22 -20,-35l1 -220c-15,20 -9,1 -16,29l2 221 -42 13 -9 61 -143 4 -1 123 -74 21 -1 627c-75,-21 -64,-19 -125,17l-97 -2c-19,23 -24,0 -18,43l3 -885z"/>
  <path class="fil0" d="M6315 1265c16,-62 60,-64 60,5l-60 -5zm69 -536c-46,12 -51,3 -90,0l3 -40c41,-8 47,-10 83,-3l4 43zm-236 -2c4,-57 7,-47 59,-39l2 44 -61 -5zm-243 -73l-47 11 0 179 0 262 1 91c37,-21 22,-10 23,-67l-4 -259c-11,39 -12,14 9,50l62 -2 -9 -49 6 -19c3,2 7,6 10,7 2,0 6,4 9,4l95 -1c36,-20 13,-21 19,-36l-67 -3 -27 -3 2 -45 51 2c48,1 15,8 62,-16 26,39 -1,43 27,0 52,15 43,0 90,20l-7 39c-14,20 -29,17 -47,24 13,27 2,19 33,22l6 14 43 -29c9,67 7,22 -8,60 -32,78 -11,-15 -16,48l44 -2c0,-57 5,-5 -12,-46 -6,-17 -9,6 -16,-47 33,-10 36,6 57,-11 35,7 19,4 53,7l37 3c-8,52 -38,70 -38,70 -2,-2 -6,6 -8,10 42,19 38,10 46,62 -4,0 -8,-1 -10,-1 -2,-1 -6,-2 -9,-2 -61,-9 -26,-16 -58,14 37,23 48,20 52,22 37,20 -2,-17 23,22 -13,68 4,21 -23,37l-31 7c-2,-2 -7,1 -11,3l19 69 -62 19 10 68c-44,24 -12,-3 -44,38 61,10 50,5 42,75 -38,-11 -46,54 -35,-40 -10,45 35,-3 -20,49l-19 -22c0,-4 1,8 2,13 -59,-13 -26,-15 -83,4 -18,-29 -15,37 -17,-44 2,24 17,5 -5,29l-69 -4c3,-80 -20,-47 53,-70l-51 -19 -53 4 -1 -58c-65,-3 -21,0 -46,16l46 68c-43,17 -38,9 -46,59 77,44 -68,-8 25,12l72 11c-4,2 -10,-2 -12,3 -7,16 -39,-6 -47,31 -12,61 72,57 144,53 53,-4 30,11 59,-17 -33,-17 -24,37 -30,-41l55 -9 3 53 15 18 59 -3 5 -73 -11 60 41 4 2 -60 57 6c-6,83 2,25 -29,46 18,16 -8,25 29,3l0 -74c21,66 7,17 29,40l-2 -764 -105 -4 -3 -38 -9 -20 -96 0 -237 0 -21 1c-15,66 5,24 -26,56z"/>
  <path class="fil0" d="M6188 1046l18 43 -56 -4c7,-30 -2,-36 38,-39zm-176 -224l67 3c-6,15 17,16 -19,36l-95 1c-3,0 -7,-4 -9,-4 -3,-1 -7,-5 -10,-7l-6 19c11,61 -14,22 34,57 -54,73 -53,71 13,101 -50,35 -31,-1 -40,58 20,9 -9,8 39,9l2 -53 44 9c1,-3 5,2 8,2 -7,69 -1,26 -21,40l10 40 11 57c15,16 7,3 -28,34l30 5 -4 42 51 19c-73,23 -50,-10 -53,70l69 4c22,-24 7,-5 5,-29 2,81 -1,15 17,44 57,-19 24,-17 83,-4 -1,-5 -2,-17 -2,-13l19 22c55,-52 10,-4 20,-49 -11,94 -3,29 35,40 8,-70 19,-65 -42,-75 32,-41 0,-14 44,-38l-10 -68 62 -19 -19 -69c4,-2 9,-5 11,-3l31 -7c27,-16 10,31 23,-37 -25,-39 14,-2 -23,-22 -4,-2 -15,1 -52,-22 32,-30 -3,-23 58,-14 3,0 7,1 9,2 2,0 6,1 10,1 -8,-52 -4,-43 -46,-62 2,-4 6,-12 8,-10 0,0 30,-18 38,-70l-37 -3c-34,-3 -18,0 -53,-7 -21,17 -24,1 -57,11 7,53 10,30 16,47 17,41 12,-11 12,46l-44 2c5,-63 -16,30 16,-48 15,-38 17,7 8,-60l-43 29 -1 35c-69,-11 -27,15 -50,-22 20,-41 -11,-3 17,-21 23,-15 7,26 18,-5 2,-4 7,0 10,-1 -31,-3 -20,5 -33,-22 18,-7 33,-4 47,-24l7 -39c-47,-20 -38,-5 -90,-20 -28,43 -1,39 -27,0 -47,24 -14,17 -62,16l4 37c-11,19 -2,12 -30,9z"/>
  <path class="fil0" d="M7705 1428c36,-12 388,-14 421,0 -36,32 -153,13 -206,13 -62,0 -172,17 -215,-13zm0 -116c92,0 355,-18 422,9 -30,17 -319,22 -388,13 -60,-8 -15,2 -34,-22zm421 -368c-52,16 -364,13 -425,1l-46 8 3 117c79,-9 -34,-24 226,-24 73,0 190,-13 245,0 -1,25 43,38 -78,36l82 17 -12 12 -414 -1 16 45c60,-1 388,-23 409,18l-415 5c68,0 135,0 203,0l155 -2c87,9 28,-1 57,29l-10 16 -419 -3c36,43 -6,23 38,31l368 -1 26 38 -395 -3c-55,6 -45,27 -97,34 22,-1 -18,-27 14,5 54,55 31,61 30,78 -22,-2 -17,11 -10,-6 14,33 11,115 -20,82 17,-5 6,-22 40,12l12 -7 403 -15c28,-34 18,-32 72,-40l-2 -501c-25,19 -22,19 -33,47 -35,-1 1,5 -23,-28z"/>
  <path class="fil0" d="M7701 945c61,12 373,15 425,-1l-3 -12 -394 -1 -28 14z"/>
  <path class="fil0" d="M7703 1218l419 3 10 -16 -403 -5c-26,7 -16,1 -26,18z"/>
  <path class="fil0" d="M6289 1721l95 -2 -3 -44c-42,-11 -42,-5 -88,-1l-4 47z"/>
  <path class="fil0" d="M5980 1717l63 6 -2 -46c-52,-11 -56,-17 -61,40z"/>
  <polygon class="fil0" points="6038,1271 6042,1229 6012,1224 5984,1217 5985,1275 "/>
  <path class="fil0" d="M5963 1637c15,-36 17,-20 0,-57 -19,34 -21,22 0,57z"/>
  <path class="fil0" d="M5963 1457c16,-36 17,-20 0,-57 -18,33 -21,22 0,57z"/>
  <path class="fil0" d="M5894 1457c18,-35 20,-20 0,-57 -13,35 -14,22 0,57z"/>
  <path class="fil1" d="M692 2850l251 15c-12,109 -52,193 -121,251 -69,59 -154,88 -255,88 -121,0 -219,-40 -294,-120 -74,-81 -111,-192 -111,-333 0,-140 35,-253 105,-339 71,-86 170,-129 296,-129 118,0 209,33 273,98 63,65 99,152 107,260l-256 13c0,-59 -11,-102 -34,-129 -23,-26 -50,-39 -81,-39 -86,0 -129,86 -129,260 0,98 11,164 34,199 22,35 54,53 94,53 72,0 113,-50 121,-148zm1036 128l0 213 -673 0 0 -894 673 0 0 206 -403 0 0 130 325 0 0 198 -325 0 0 147 403 0zm398 -112l0 325 -279 0 0 -894 382 0c95,0 167,10 217,32 49,22 89,56 118,101 29,45 43,95 43,151 0,85 -30,154 -89,207 -59,52 -138,78 -237,78l-155 0zm-4 -191l91 0c80,0 121,-31 121,-91 0,-57 -37,-85 -112,-85l-100 0 0 176zm598 516l0 -894 454 0c94,0 163,23 206,71 44,47 65,102 65,163 0,44 -12,84 -37,120 -25,36 -62,61 -112,75 116,28 173,97 173,208 0,67 -20,126 -61,178 -41,53 -128,79 -262,79l-426 0zm252 -553l128 0c32,0 55,-8 68,-24 13,-16 20,-33 20,-51 0,-50 -31,-75 -93,-75l-123 0 0 150zm0 354l135 0c33,0 58,-8 73,-25 16,-16 24,-35 24,-55 0,-21 -8,-40 -23,-57 -15,-18 -43,-26 -83,-26l-126 0 0 163zm887 104l0 95 -267 0 0 -894 267 0 0 357c0,48 -3,105 -8,170 33,-71 65,-134 97,-190l142 -242 0 -95 266 0 0 894 -266 0 0 -355c0,-51 2,-108 6,-169 -26,60 -58,123 -97,189l-140 240zm1154 -246l251 15c-12,109 -52,193 -121,251 -69,59 -154,88 -255,88 -121,0 -219,-40 -293,-120 -75,-81 -112,-192 -112,-333 0,-140 35,-253 105,-339 71,-86 170,-129 296,-129 118,0 209,33 273,98 63,65 99,152 107,260l-256 13c0,-59 -11,-102 -34,-129 -23,-26 -50,-39 -81,-39 -86,0 -129,86 -129,260 0,98 11,164 34,199 22,35 54,53 94,53 72,0 113,-50 121,-148zm1493 -553l0 894 -275 0 0 -348 -208 0 0 348 -275 0 0 -894 275 0 0 329 208 0 0 -329 275 0zm660 894l-49 -176 -243 0 -53 176 -223 0 277 -894 290 0 281 894 -280 0zm-243 -372l143 0 -71 -259 -72 259zm979 173l202 -695 330 0 196 695 98 0 0 386 -172 0 -23 -187 -533 0 -23 187 -173 0 0 -386 98 0zm214 0l249 0 -110 -490 -13 0 -126 490zm1061 212c-125,0 -228,-42 -307,-125 -80,-83 -119,-195 -119,-335 0,-133 38,-243 114,-330 75,-87 181,-131 315,-131 125,0 226,41 305,123 78,82 117,192 117,329 0,142 -39,255 -118,341 -80,85 -181,128 -307,128zm-1 -202c47,0 80,-21 101,-61 20,-41 30,-115 30,-222 0,-156 -42,-233 -126,-233 -90,0 -135,88 -135,266 0,166 43,250 130,250zm1524 -705l0 894 -254 0 0 -640 -167 640 -174 0 -172 -640 0 640 -205 0 0 -894 358 0 130 475 123 -475 361 0z"/>
  <path class="fil1" d="M992 3593l141 0c28,0 49,2 63,4 13,2 26,7 37,14 10,8 19,18 27,30 7,12 11,26 11,41 0,17 -5,32 -14,46 -9,14 -21,24 -36,31 22,6 38,17 50,32 11,15 17,33 17,53 0,16 -4,32 -11,47 -8,16 -18,28 -31,37 -13,9 -29,15 -48,17 -12,1 -40,2 -86,2l-120 0 0 -354zm71 59l0 82 47 0c28,0 45,-1 52,-2 12,-1 22,-5 29,-12 7,-7 10,-16 10,-28 0,-11 -3,-19 -9,-26 -6,-7 -15,-11 -27,-13 -7,0 -27,-1 -61,-1l-41 0zm0 140l0 95 66 0c26,0 42,0 49,-2 11,-2 20,-7 26,-14 7,-8 10,-18 10,-30 0,-11 -2,-20 -7,-27 -6,-8 -13,-13 -23,-16 -9,-4 -31,-6 -63,-6l-58 0zm368 -101l67 0 0 106 68 0c27,0 48,2 62,6 14,4 26,12 35,25 10,12 15,27 15,45 0,24 -9,43 -26,55 -17,13 -42,19 -76,19l-145 0 0 -256zm67 213l63 0c17,0 29,-3 36,-8 8,-5 11,-13 11,-25 0,-12 -4,-21 -14,-25 -10,-5 -27,-7 -52,-7l-44 0 0 65zm219 -213l67 0 0 256 -67 0 0 -256zm365 175l68 11c-9,25 -22,44 -41,57 -19,13 -42,19 -70,19 -45,0 -78,-14 -99,-43 -17,-24 -26,-53 -26,-89 0,-42 12,-76 34,-100 22,-24 50,-36 84,-36 38,0 68,13 90,38 22,25 32,64 31,116l-169 0c1,20 6,36 16,47 11,11 24,17 39,17 11,0 20,-3 27,-9 7,-6 13,-15 16,-28zm4 -69c0,-19 -5,-34 -15,-44 -10,-11 -21,-16 -35,-16 -15,0 -27,6 -37,16 -9,11 -14,26 -14,44l101 0zm274 45l0 -44c12,0 20,0 25,-2 6,-1 11,-5 16,-11 4,-6 7,-13 7,-20 0,-9 -3,-16 -9,-23 -6,-7 -15,-10 -26,-10 -9,0 -17,2 -25,5 -7,4 -13,13 -19,28l-57 -13c6,-22 18,-39 37,-50 19,-11 41,-17 65,-17 31,0 55,7 72,22 16,14 25,32 25,53 0,13 -4,24 -11,33 -7,9 -19,17 -35,25 19,5 33,13 43,23 9,11 14,24 14,39 0,20 -9,37 -28,52 -19,14 -46,21 -81,21 -61,0 -98,-23 -111,-71l61 -12c10,26 27,38 50,38 12,0 23,-3 30,-10 8,-7 12,-15 12,-24 0,-10 -4,-17 -12,-23 -8,-6 -19,-9 -32,-9l-11 0zm471 105l-194 0 0 68 -55 0 0 -123 28 0c11,-13 21,-33 28,-61 8,-27 12,-74 14,-140l206 0 0 201 28 0 0 123 -55 0 0 -68zm-40 -55l1 -145 -83 0c-2,70 -14,119 -33,145l115 0zm221 -201l68 0 0 94 97 0 0 -94 68 0 0 256 -68 0 0 -108 -97 0 0 108 -68 0 0 -256zm368 125c0,-23 5,-45 16,-66 11,-21 27,-37 47,-48 21,-11 43,-17 69,-17 38,0 70,13 95,38 25,25 37,57 37,96 0,38 -13,71 -38,96 -25,26 -56,38 -94,38 -23,0 -46,-5 -67,-16 -21,-10 -38,-26 -49,-46 -11,-21 -16,-46 -16,-75zm69 3c0,26 6,45 18,59 12,13 27,20 45,20 18,0 32,-7 44,-20 12,-14 18,-33 18,-59 0,-25 -6,-45 -18,-58 -12,-14 -26,-20 -44,-20 -18,0 -33,6 -45,20 -12,13 -18,33 -18,58zm328 -128l66 0 0 161 104 -161 67 0 0 256 -66 0 0 -163 -105 163 -66 0 0 -256zm162 -103l33 0c-2,21 -10,39 -23,51 -13,12 -31,19 -52,19 -21,0 -39,-7 -52,-19 -14,-12 -21,-30 -23,-51l33 0c1,11 5,20 12,25 7,6 17,9 30,9 13,0 23,-3 30,-9 7,-5 11,-14 12,-25zm669 179l-67 12c-2,-14 -7,-24 -15,-30 -8,-7 -18,-10 -31,-10 -17,0 -30,5 -40,17 -10,12 -15,31 -15,59 0,30 5,52 15,64 10,13 24,19 41,19 13,0 23,-4 32,-11 8,-7 14,-20 17,-38l67 12c-7,30 -21,53 -40,69 -20,16 -46,23 -79,23 -37,0 -67,-11 -89,-35 -23,-24 -34,-56 -34,-98 0,-43 11,-76 34,-99 22,-24 52,-36 90,-36 31,0 56,7 75,20 18,14 31,34 39,62zm282 99l68 11c-9,25 -23,44 -41,57 -19,13 -43,19 -71,19 -44,0 -77,-14 -98,-43 -17,-24 -26,-53 -26,-89 0,-42 11,-76 33,-100 23,-24 51,-36 85,-36 38,0 68,13 90,38 22,25 32,64 31,116l-169 0c0,20 6,36 16,47 11,11 24,17 39,17 11,0 20,-3 27,-9 7,-6 12,-15 16,-28zm4 -69c0,-19 -5,-34 -15,-44 -10,-11 -21,-16 -35,-16 -15,0 -27,6 -37,16 -9,11 -14,26 -14,44l101 0zm203 -106l63 0 0 37c8,-13 19,-23 33,-31 14,-8 30,-12 47,-12 30,0 55,12 76,35 20,24 31,56 31,98 0,43 -11,76 -32,100 -20,24 -46,35 -76,35 -14,0 -27,-2 -38,-8 -12,-6 -24,-15 -36,-29l0 128 -68 0 0 -353zm67 124c0,29 5,50 17,64 11,14 25,21 41,21 16,0 29,-7 40,-19 10,-13 15,-34 15,-63 0,-27 -5,-47 -16,-60 -11,-13 -24,-19 -40,-19 -16,0 -30,6 -41,19 -11,13 -16,32 -16,57zm319 -124l149 0c30,0 53,5 68,16 15,11 23,28 23,51 0,14 -4,26 -12,37 -9,11 -19,18 -32,21 18,5 31,13 40,25 8,12 13,25 13,39 0,20 -7,36 -22,48 -15,13 -36,19 -65,19l-162 0 0 -256zm68 106l44 0c21,0 37,-2 46,-8 10,-5 14,-13 14,-25 0,-11 -4,-18 -13,-23 -9,-5 -24,-7 -47,-7l-44 0 0 63zm0 107l54 0c19,0 34,-3 42,-7 9,-5 14,-13 14,-26 0,-12 -5,-21 -16,-25 -10,-5 -30,-8 -59,-8l-35 0 0 66zm316 -213l65 0 0 161 104 -161 67 0 0 256 -65 0 0 -163 -106 163 -65 0 0 -256zm611 76l-67 12c-2,-14 -7,-24 -15,-30 -8,-7 -18,-10 -31,-10 -17,0 -30,5 -40,17 -10,12 -15,31 -15,59 0,30 5,52 15,64 10,13 24,19 41,19 13,0 23,-4 31,-11 9,-7 14,-20 18,-38l66 12c-6,30 -20,53 -39,69 -20,16 -46,23 -79,23 -38,0 -67,-11 -90,-35 -22,-24 -33,-56 -33,-98 0,-43 11,-76 33,-99 23,-24 53,-36 91,-36 31,0 56,7 74,20 19,14 32,34 40,62zm131 -76l67 0 0 94 98 0 0 -94 68 0 0 256 -68 0 0 -108 -98 0 0 108 -67 0 0 -256zm384 0l68 0 0 106 68 0c26,0 47,2 61,6 14,4 26,12 36,25 9,12 14,27 14,45 0,24 -8,43 -25,55 -17,13 -43,19 -77,19l-145 0 0 -256zm68 213l63 0c16,0 28,-3 36,-8 7,-5 11,-13 11,-25 0,-12 -5,-21 -15,-25 -9,-5 -27,-7 -51,-7l-44 0 0 65zm218 -213l67 0 0 256 -67 0 0 -256zm215 0l66 0 0 161 104 -161 67 0 0 256 -66 0 0 -163 -105 163 -66 0 0 -256zm162 -103l33 0c-2,21 -10,39 -23,51 -13,12 -31,19 -52,19 -21,0 -39,-7 -52,-19 -14,-12 -21,-30 -23,-51l33 0c1,11 5,20 12,25 7,6 17,9 30,9 13,0 23,-3 30,-9 7,-5 11,-14 12,-25zm443 103l68 0 0 201 97 0 0 -201 68 0 0 201 27 0 0 123 -55 0 0 -68 -205 0 0 -256zm537 175l68 11c-9,25 -23,44 -41,57 -19,13 -43,19 -71,19 -44,0 -77,-14 -99,-43 -16,-24 -25,-53 -25,-89 0,-42 11,-76 33,-100 22,-24 51,-36 84,-36 38,0 69,13 91,38 22,25 32,64 31,116l-169 0c0,20 6,36 16,47 10,11 23,17 39,17 11,0 19,-3 27,-9 7,-6 12,-15 16,-28zm4 -69c-1,-19 -6,-34 -15,-44 -10,-11 -22,-16 -35,-16 -15,0 -27,6 -37,16 -10,11 -14,26 -14,44l101 0zm202 -106l68 0 0 94 97 0 0 -94 68 0 0 256 -68 0 0 -108 -97 0 0 108 -68 0 0 -256zm353 0l231 0 0 55 -82 0 0 201 -67 0 0 -201 -82 0 0 -55zm353 0l63 0 0 37c8,-13 19,-23 33,-31 14,-8 30,-12 47,-12 29,0 55,12 75,35 21,24 32,56 32,98 0,43 -11,76 -32,100 -21,24 -46,35 -76,35 -14,0 -27,-2 -38,-8 -12,-6 -24,-15 -37,-29l0 128 -67 0 0 -353zm66 124c0,29 6,50 17,64 12,14 26,21 42,21 16,0 29,-7 39,-19 11,-13 16,-34 16,-63 0,-27 -5,-47 -16,-60 -11,-13 -24,-19 -40,-19 -17,0 -30,6 -41,19 -11,13 -17,32 -17,57zm-7421 427l148 0c31,0 53,6 68,17 16,11 23,28 23,50 0,15 -4,27 -12,38 -8,10 -19,18 -31,21 17,4 30,13 39,24 9,12 13,25 13,40 0,19 -7,36 -22,48 -15,13 -36,19 -65,19l-161 0 0 -257zm67 107l44 0c22,0 37,-2 46,-8 10,-5 15,-14 15,-25 0,-11 -5,-19 -14,-23 -9,-5 -24,-7 -47,-7l-44 0 0 63zm0 106l54 0c20,0 34,-2 43,-7 9,-4 13,-13 13,-25 0,-12 -5,-21 -15,-26 -10,-4 -30,-7 -60,-7l-35 0 0 65zm535 -213l173 0 0 55 -106 0 0 202 -67 0 0 -257zm241 257l0 -68 67 0 0 68 -67 0zm666 -131l69 22c-11,39 -28,67 -53,86 -25,19 -56,29 -94,29 -47,0 -85,-16 -116,-48 -30,-33 -45,-76 -45,-132 0,-59 15,-105 46,-137 30,-33 70,-49 119,-49 44,0 79,13 106,38 16,15 28,37 36,65l-71 17c-4,-18 -12,-32 -26,-43 -13,-11 -29,-16 -48,-16 -26,0 -48,9 -64,28 -16,19 -24,49 -24,92 0,44 8,76 24,95 16,19 37,28 62,28 19,0 36,-6 49,-18 14,-12 24,-31 30,-57zm269 -47l-62 -10c7,-25 19,-44 36,-56 17,-12 42,-18 75,-18 31,0 53,4 68,11 15,7 25,16 31,27 6,11 9,31 9,61l-1 79c0,22 1,39 3,49 3,11 7,23 13,35l-68 0c-1,-5 -4,-11 -6,-20 -1,-4 -2,-7 -3,-8 -11,11 -23,20 -37,26 -13,5 -27,8 -42,8 -26,0 -47,-7 -62,-21 -15,-15 -23,-33 -23,-55 0,-14 4,-27 11,-38 7,-11 16,-20 29,-26 12,-6 30,-11 54,-16 31,-6 53,-12 66,-17l0 -6c0,-14 -4,-23 -10,-29 -7,-5 -19,-8 -37,-8 -12,0 -21,2 -28,7 -7,5 -12,13 -16,25zm91 55c-9,3 -23,7 -42,11 -18,4 -31,8 -37,11 -8,7 -13,15 -13,24 0,10 4,18 11,25 7,7 16,10 27,10 12,0 24,-4 35,-12 8,-6 13,-13 16,-22 2,-6 3,-17 3,-33l0 -14zm212 -134l68 0 0 94 98 0 0 -94 67 0 0 257 -67 0 0 -108 -98 0 0 108 -68 0 0 -257zm381 0l68 0 0 105c11,-1 19,-5 24,-10 4,-6 10,-18 16,-37 9,-25 19,-41 29,-48 10,-7 24,-11 41,-11 5,0 14,0 26,1l1 45c-18,0 -30,2 -35,5 -5,3 -10,14 -16,32 -8,23 -19,38 -34,43 21,6 39,25 54,56 1,2 2,3 3,5l38 71 -73 0 -34 -75c-7,-15 -13,-24 -18,-28 -5,-5 -12,-7 -22,-7l0 110 -68 0 0 -257zm302 0l231 0 0 55 -82 0 0 202 -67 0 0 -202 -82 0 0 -55zm347 162l0 -67 133 0 0 67 -133 0zm256 -259l281 0 0 354 -72 0 0 -294 -138 0 0 294 -71 0 0 -354zm584 273l68 11c-9,25 -23,44 -42,57 -18,13 -42,19 -70,19 -44,0 -77,-14 -99,-43 -17,-24 -25,-53 -25,-89 0,-42 11,-76 33,-100 22,-24 50,-36 84,-36 38,0 68,13 91,38 21,25 32,64 31,116l-169 0c0,20 6,35 16,47 10,11 23,16 39,16 10,0 19,-3 27,-8 7,-6 12,-15 16,-28zm4 -69c-1,-20 -6,-35 -15,-45 -10,-10 -22,-15 -35,-15 -15,0 -27,5 -37,16 -10,11 -14,26 -14,44l101 0zm168 -107l231 0 0 55 -82 0 0 202 -67 0 0 -202 -82 0 0 -55zm503 176l67 11c-8,25 -22,44 -41,57 -19,13 -42,19 -70,19 -45,0 -78,-14 -99,-43 -17,-24 -25,-53 -25,-89 0,-42 11,-76 33,-100 22,-24 50,-36 84,-36 38,0 68,13 90,38 22,25 33,64 32,116l-170 0c1,20 6,35 17,47 10,11 23,16 39,16 10,0 19,-3 26,-8 7,-6 13,-15 17,-28zm4 -69c-1,-20 -6,-35 -16,-45 -9,-10 -21,-15 -35,-15 -14,0 -27,5 -36,16 -10,11 -15,26 -14,44l101 0zm202 -107l64 0 0 38c8,-13 19,-23 33,-31 14,-8 29,-12 47,-12 29,0 55,12 75,35 21,23 31,56 31,98 0,43 -10,76 -31,100 -21,23 -46,35 -76,35 -14,0 -27,-3 -39,-8 -11,-6 -23,-15 -36,-29l0 128 -68 0 0 -354zm67 125c0,29 6,50 17,64 12,13 26,20 42,20 16,0 29,-6 39,-19 11,-12 16,-33 16,-62 0,-27 -6,-47 -16,-60 -11,-13 -24,-20 -40,-20 -17,0 -31,7 -41,20 -11,12 -17,31 -17,57zm512 -230l46 0c-1,20 -7,36 -16,46 -9,10 -32,16 -69,16 -4,0 -8,0 -13,0l-8 0c-22,0 -39,2 -53,7 -13,4 -24,14 -33,27 -9,14 -13,36 -13,66 9,-18 22,-32 38,-42 16,-9 35,-14 57,-14 34,0 62,14 85,40 24,26 35,56 35,91 0,36 -12,67 -36,93 -25,25 -57,38 -97,38 -27,0 -51,-6 -71,-19 -21,-13 -36,-31 -45,-54 -8,-23 -13,-60 -13,-112 0,-62 11,-106 34,-133 23,-27 62,-40 119,-40l34 0c10,0 16,-4 19,-10zm-136 236c0,23 6,42 17,55 12,14 26,21 43,21 18,0 33,-7 44,-21 12,-14 18,-33 18,-55 0,-23 -6,-41 -18,-55 -12,-14 -26,-21 -44,-21 -16,0 -31,7 -42,20 -12,14 -18,33 -18,56zm292 -131l72 0 61 182 60 -182 70 0 -90 247 -16 45c-6,15 -12,26 -17,34 -6,8 -12,14 -19,19 -7,5 -16,9 -26,11 -10,3 -22,5 -35,5 -13,0 -25,-2 -38,-5l-6 -52c11,2 20,3 29,3 16,0 27,-5 35,-14 7,-10 13,-21 17,-36l-97 -257zm381 0l63 0 0 38c8,-13 19,-23 33,-31 14,-8 30,-12 47,-12 30,0 55,12 76,35 20,23 31,56 31,98 0,43 -11,76 -32,100 -21,23 -46,35 -76,35 -14,0 -27,-3 -38,-8 -12,-6 -24,-15 -36,-29l0 128 -68 0 0 -354zm67 125c0,29 5,50 17,64 11,13 25,20 41,20 16,0 29,-6 39,-19 11,-12 16,-33 16,-62 0,-27 -5,-47 -16,-60 -11,-13 -24,-20 -40,-20 -16,0 -30,7 -41,20 -11,12 -16,31 -16,57zm316 -125l173 0 0 55 -105 0 0 202 -68 0 0 -257z"/>
 </g>
</svg>
