<?xml version="1.0" encoding="UTF-8"?>
<!DOCTYPE svg PUBLIC "-//W3C//DTD SVG 1.1//EN" "http://www.w3.org/Graphics/SVG/1.1/DTD/svg11.dtd">
<!-- Creator: CorelDRAW X8 -->
<svg xmlns="http://www.w3.org/2000/svg" xml:space="preserve" width="108.373mm" height="52.4932mm" version="1.1" style="shape-rendering:geometricPrecision; text-rendering:geometricPrecision; image-rendering:optimizeQuality; fill-rule:evenodd; clip-rule:evenodd"
viewBox="0 0 10837 5249"
 xmlns:xlink="http://www.w3.org/1999/xlink">
 <defs>
  <style type="text/css">
   <![CDATA[
    .fil0 {fill:#08053B}
    .fil1 {fill:#08053B;fill-rule:nonzero}
   ]]>
  </style>
 </defs>
 <g id="Слой_x0020_1">
  <metadata id="CorelCorpID_0Corel-Layer"/>
  <g id="_643582984">
   <polygon class="fil0" points="1973,180 2014,128 1946,121 "/>
   <path class="fil1" d="M717 3422l251 15c-12,109 -52,193 -121,251 -69,58 -154,88 -255,88 -121,0 -219,-41 -294,-121 -74,-80 -112,-191 -112,-332 0,-140 36,-254 106,-340 71,-86 169,-128 296,-128 118,0 209,32 272,97 64,66 100,152 108,260l-256 14c0,-60 -11,-103 -34,-129 -23,-27 -50,-40 -81,-40 -86,0 -129,87 -129,261 0,97 11,164 33,199 23,35 55,52 95,52 72,0 113,-49 121,-147zm1036 127l0 213 -673 0 0 -894 673 0 0 206 -403 0 0 130 325 0 0 199 -325 0 0 146 403 0zm398 -111l0 324 -279 0 0 -894 382 0c95,0 167,11 217,33 49,22 88,55 117,100 30,45 44,96 44,151 0,86 -30,155 -89,207 -59,53 -138,79 -237,79l-155 0zm-4 -192l91 0c80,0 121,-30 121,-90 0,-57 -38,-86 -112,-86l-100 0 0 176zm598 516l0 -894 454 0c94,0 163,24 206,71 43,48 65,102 65,163 0,45 -12,85 -37,121 -25,36 -63,61 -112,74 116,28 173,98 173,209 0,66 -20,125 -61,178 -41,52 -128,78 -262,78l-426 0zm252 -552l128 0c32,0 55,-8 68,-24 13,-16 20,-34 20,-52 0,-50 -31,-74 -93,-74l-123 0 0 150zm0 354l135 0c33,0 58,-9 73,-25 16,-16 24,-35 24,-56 0,-21 -8,-39 -23,-57 -15,-17 -43,-26 -84,-26l-125 0 0 164zm887 104l0 94 -267 0 0 -894 267 0 0 358c0,47 -3,104 -8,170 32,-72 65,-135 97,-190l141 -242 0 -96 267 0 0 894 -267 0 0 -355c0,-51 3,-107 7,-169 -26,60 -58,123 -97,189l-140 241zm1154 -246l251 15c-12,109 -52,193 -121,251 -69,58 -154,88 -255,88 -121,0 -219,-41 -294,-121 -74,-80 -112,-191 -112,-332 0,-140 36,-254 106,-340 71,-86 169,-128 296,-128 118,0 209,32 273,97 63,66 99,152 107,260l-256 14c0,-60 -11,-103 -34,-129 -23,-27 -50,-40 -81,-40 -86,0 -129,87 -129,261 0,97 11,164 33,199 23,35 55,52 95,52 72,0 113,-49 121,-147zm1493 -554l0 894 -275 0 0 -347 -208 0 0 347 -275 0 0 -894 275 0 0 330 208 0 0 -330 275 0zm660 894l-49 -176 -243 0 -53 176 -223 0 277 -894 290 0 281 894 -280 0zm-243 -371l143 0 -71 -259 -72 259zm979 173l202 -696 330 0 196 696 98 0 0 386 -172 0 -23 -188 -533 0 -23 188 -173 0 0 -386 98 0zm214 0l248 0 -109 -491 -13 0 -126 491zm1061 212c-125,0 -228,-42 -307,-126 -80,-83 -119,-194 -119,-334 0,-133 38,-244 114,-331 75,-87 180,-130 315,-130 124,0 226,41 305,123 78,82 117,191 117,328 0,142 -40,256 -119,341 -79,86 -181,129 -306,129zm-1 -203c47,0 80,-20 100,-61 21,-40 31,-114 31,-222 0,-155 -42,-233 -126,-233 -90,0 -135,89 -135,266 0,167 43,250 130,250zm1524 -705l0 894 -255 0 0 -639 -166 639 -174 0 -172 -639 0 639 -205 0 0 -894 358 0 130 475 123 -475 361 0z"/>
   <path class="fil1" d="M976 4005l142 0c28,0 49,1 63,3 13,3 26,8 36,15 11,7 20,17 28,29 7,13 10,26 10,42 0,16 -4,31 -13,45 -9,14 -21,24 -36,31 21,6 38,17 49,32 12,15 18,33 18,54 0,16 -4,32 -11,47 -8,15 -18,27 -31,36 -13,9 -29,15 -48,17 -12,1 -41,2 -86,2l-121 0 0 -353zm72 59l0 81 47 0c28,0 45,0 52,-1 12,-2 21,-6 28,-13 7,-7 11,-16 11,-27 0,-11 -3,-20 -9,-27 -6,-7 -15,-11 -27,-12 -7,-1 -27,-1 -61,-1l-41 0zm0 140l0 95 66 0c26,0 42,-1 49,-2 11,-2 19,-7 26,-15 7,-7 10,-17 10,-30 0,-10 -2,-19 -8,-27 -5,-7 -12,-13 -22,-16 -10,-3 -31,-5 -63,-5l-58 0zm367 -102l68 0 0 107 68 0c27,0 47,2 61,6 15,3 27,12 36,24 10,13 15,28 15,45 0,25 -9,43 -26,56 -17,12 -42,18 -76,18l-146 0 0 -256zm68 213l63 0c17,0 29,-3 36,-8 8,-5 11,-13 11,-25 0,-12 -5,-20 -14,-25 -10,-4 -27,-7 -52,-7l-44 0 0 65zm218 -213l68 0 0 256 -68 0 0 -256zm366 175l68 12c-9,25 -23,43 -41,56 -19,13 -42,20 -71,20 -44,0 -77,-15 -98,-44 -17,-23 -26,-53 -26,-88 0,-43 11,-76 34,-100 22,-24 50,-36 84,-36 38,0 68,12 90,38 22,25 32,63 31,115l-169 0c0,20 6,36 16,47 11,11 24,17 39,17 11,0 20,-3 27,-9 7,-5 13,-15 16,-28zm4 -68c0,-20 -5,-35 -15,-45 -10,-10 -21,-15 -35,-15 -15,0 -27,5 -37,16 -9,11 -14,25 -14,44l101 0zm274 45l0 -44c11,0 20,-1 25,-2 6,-2 11,-6 15,-12 5,-6 8,-12 8,-20 0,-8 -3,-16 -9,-22 -6,-7 -15,-11 -27,-11 -9,0 -17,2 -24,6 -7,4 -13,13 -19,27l-57 -12c6,-22 18,-39 37,-50 19,-12 40,-17 65,-17 31,0 54,7 71,21 17,14 26,32 26,53 0,14 -4,25 -11,34 -7,9 -19,17 -35,24 19,5 33,13 43,24 9,10 14,23 14,39 0,20 -10,37 -28,51 -19,15 -46,22 -81,22 -61,0 -98,-24 -112,-72l62 -11c10,25 27,37 50,37 12,0 22,-3 30,-10 8,-6 12,-14 12,-23 0,-10 -4,-18 -12,-24 -8,-5 -19,-8 -32,-8l-11 0zm471 104l-194 0 0 68 -55 0 0 -123 27 0c12,-13 21,-33 29,-60 8,-28 12,-74 13,-141l207 0 0 201 28 0 0 123 -55 0 0 -68zm-40 -55l0 -145 -82 0c-2,71 -14,119 -33,145l115 0zm221 -201l67 0 0 94 98 0 0 -94 68 0 0 256 -68 0 0 -107 -98 0 0 107 -67 0 0 -256zm368 125c0,-22 5,-44 16,-65 11,-21 27,-37 47,-49 21,-11 43,-16 68,-16 39,0 71,12 96,38 24,25 37,57 37,95 0,39 -13,71 -38,97 -25,25 -56,38 -94,38 -24,0 -46,-5 -67,-16 -22,-11 -38,-26 -49,-47 -11,-20 -16,-45 -16,-75zm69 4c0,25 6,45 18,58 12,14 27,21 45,21 17,0 32,-7 44,-21 12,-13 18,-33 18,-59 0,-25 -6,-44 -18,-58 -12,-13 -27,-20 -44,-20 -18,0 -33,7 -45,20 -12,14 -18,33 -18,59zm328 -129l66 0 0 161 104 -161 66 0 0 256 -65 0 0 -163 -105 163 -66 0 0 -256zm162 -103l33 0c-2,22 -10,39 -23,51 -14,13 -31,19 -52,19 -22,0 -39,-6 -52,-19 -14,-12 -22,-29 -23,-51l33 0c1,11 5,20 12,26 7,6 17,9 30,9 13,0 23,-3 30,-9 7,-6 11,-15 12,-26zm669 179l-67 12c-2,-13 -7,-23 -15,-30 -8,-7 -18,-10 -31,-10 -17,0 -30,6 -40,18 -10,11 -15,31 -15,58 0,31 5,52 15,65 10,12 24,19 41,19 13,0 23,-4 31,-11 9,-8 14,-20 18,-38l66 11c-6,31 -20,54 -39,69 -20,16 -46,24 -79,24 -37,0 -67,-12 -90,-36 -22,-23 -33,-56 -33,-98 0,-42 11,-75 33,-99 23,-24 53,-35 91,-35 31,0 56,6 74,20 19,13 32,34 40,61zm282 99l68 12c-9,25 -23,43 -41,56 -19,13 -43,20 -71,20 -44,0 -77,-15 -99,-44 -16,-23 -25,-53 -25,-88 0,-43 11,-76 33,-100 22,-24 51,-36 84,-36 38,0 69,12 91,38 22,25 32,63 31,115l-169 0c0,20 6,36 16,47 10,11 23,17 39,17 11,0 19,-3 27,-9 7,-5 12,-15 16,-28zm4 -68c-1,-20 -6,-35 -15,-45 -10,-10 -22,-15 -35,-15 -15,0 -27,5 -37,16 -10,11 -14,25 -14,44l101 0zm203 -107l63 0 0 38c8,-13 19,-23 33,-31 14,-8 30,-12 47,-12 30,0 55,11 76,35 20,23 31,56 31,97 0,43 -11,76 -32,100 -21,24 -46,36 -76,36 -14,0 -27,-3 -38,-9 -12,-5 -24,-15 -36,-28l0 128 -68 0 0 -354zm67 124c0,29 5,51 17,64 11,14 25,21 41,21 16,0 29,-6 39,-19 11,-13 16,-33 16,-62 0,-27 -5,-47 -16,-60 -11,-13 -24,-20 -40,-20 -16,0 -30,6 -41,19 -11,13 -16,32 -16,57zm319 -124l149 0c30,0 53,6 68,17 15,11 23,28 23,50 0,14 -4,27 -13,38 -8,10 -18,17 -31,21 18,4 31,12 40,24 8,12 13,25 13,39 0,20 -8,36 -22,49 -15,12 -37,18 -65,18l-162 0 0 -256zm68 107l44 0c21,0 36,-3 46,-8 9,-5 14,-14 14,-25 0,-11 -4,-19 -13,-23 -9,-5 -25,-7 -47,-7l-44 0 0 63zm0 106l54 0c19,0 33,-2 42,-7 9,-5 14,-13 14,-25 0,-13 -5,-21 -16,-26 -10,-5 -30,-7 -59,-7l-35 0 0 65zm316 -213l65 0 0 161 104 -161 67 0 0 256 -65 0 0 -163 -106 163 -65 0 0 -256zm611 76l-67 12c-2,-13 -7,-23 -15,-30 -8,-7 -18,-10 -31,-10 -17,0 -30,6 -40,18 -11,11 -16,31 -16,58 0,31 6,52 16,65 10,12 24,19 41,19 13,0 23,-4 31,-11 9,-8 14,-20 18,-38l66 11c-7,31 -20,54 -39,69 -20,16 -46,24 -79,24 -38,0 -68,-12 -90,-36 -22,-23 -33,-56 -33,-98 0,-42 11,-75 33,-99 23,-24 53,-35 91,-35 31,0 56,6 74,20 19,13 32,34 40,61zm131 -76l67 0 0 94 98 0 0 -94 68 0 0 256 -68 0 0 -107 -98 0 0 107 -67 0 0 -256zm384 0l67 0 0 107 69 0c26,0 47,2 61,6 14,3 26,12 36,24 9,13 14,28 14,45 0,25 -8,43 -25,56 -17,12 -43,18 -77,18l-145 0 0 -256zm67 213l64 0c16,0 28,-3 35,-8 8,-5 12,-13 12,-25 0,-12 -5,-20 -15,-25 -9,-4 -27,-7 -52,-7l-44 0 0 65zm219 -213l67 0 0 256 -67 0 0 -256zm215 0l66 0 0 161 104 -161 66 0 0 256 -65 0 0 -163 -105 163 -66 0 0 -256zm162 -103l33 0c-2,22 -10,39 -23,51 -13,13 -31,19 -52,19 -22,0 -39,-6 -52,-19 -14,-12 -22,-29 -23,-51l33 0c1,11 5,20 12,26 7,6 17,9 30,9 13,0 23,-3 30,-9 7,-6 11,-15 12,-26zm443 103l68 0 0 202 97 0 0 -202 68 0 0 202 27 0 0 122 -55 0 0 -68 -205 0 0 -256zm537 175l68 12c-9,25 -23,43 -42,56 -18,13 -42,20 -70,20 -44,0 -77,-15 -99,-44 -17,-23 -25,-53 -25,-88 0,-43 11,-76 33,-100 22,-24 50,-36 84,-36 38,0 68,12 90,38 22,25 33,63 32,115l-169 0c0,20 6,36 16,47 10,11 23,17 39,17 10,0 19,-3 26,-9 8,-5 13,-15 17,-28zm4 -68c-1,-20 -6,-35 -15,-45 -10,-10 -22,-15 -35,-15 -15,0 -27,5 -37,16 -10,11 -14,25 -14,44l101 0zm202 -107l67 0 0 94 98 0 0 -94 68 0 0 256 -68 0 0 -107 -98 0 0 107 -67 0 0 -256zm353 0l231 0 0 55 -82 0 0 201 -67 0 0 -201 -82 0 0 -55zm353 0l63 0 0 38c8,-13 19,-23 33,-31 14,-8 30,-12 47,-12 29,0 55,11 75,35 21,23 31,56 31,97 0,43 -10,76 -31,100 -21,24 -46,36 -76,36 -14,0 -27,-3 -38,-9 -12,-5 -24,-15 -37,-28l0 128 -67 0 0 -354zm66 124c0,29 6,51 17,64 12,14 26,21 42,21 16,0 29,-6 39,-19 11,-13 16,-33 16,-62 0,-27 -6,-47 -16,-60 -11,-13 -24,-20 -40,-20 -17,0 -31,6 -41,19 -11,13 -17,32 -17,57zm-7600 428l149 0c30,0 53,5 68,17 15,11 23,27 23,50 0,14 -5,27 -13,37 -8,11 -19,18 -31,22 18,4 31,12 39,24 9,12 13,25 13,39 0,20 -7,36 -22,49 -14,12 -36,18 -64,18l-162 0 0 -256zm68 107l44 0c21,0 36,-3 46,-8 9,-6 14,-14 14,-26 0,-10 -5,-18 -13,-23 -9,-4 -25,-7 -47,-7l-44 0 0 64zm0 106l54 0c19,0 33,-3 42,-7 9,-5 13,-13 13,-25 0,-13 -5,-22 -15,-26 -10,-5 -30,-7 -59,-7l-35 0 0 65zm534 -213l173 0 0 55 -105 0 0 201 -68 0 0 -256zm241 256l0 -67 68 0 0 67 -68 0zm666 -130l69 21c-10,39 -28,68 -53,87 -24,19 -55,28 -93,28 -47,0 -86,-16 -116,-48 -31,-32 -46,-76 -46,-132 0,-59 16,-104 46,-137 30,-33 70,-49 120,-49 43,0 78,13 105,39 16,15 28,37 37,65l-71 17c-4,-19 -13,-33 -26,-44 -14,-10 -30,-16 -49,-16 -26,0 -47,10 -64,29 -16,18 -24,49 -24,91 0,45 8,77 24,95 16,19 37,29 63,29 19,0 35,-6 49,-18 14,-12 23,-31 29,-57zm269 -47l-61 -11c7,-25 19,-43 36,-55 16,-13 41,-19 75,-19 30,0 53,4 67,11 15,7 26,16 32,27 6,11 9,32 9,61l-1 79c0,23 1,39 3,50 2,11 6,22 12,34l-67 0c-2,-4 -4,-11 -7,-20 -1,-4 -2,-6 -2,-7 -12,11 -24,19 -37,25 -13,6 -27,9 -42,9 -27,0 -47,-8 -62,-22 -16,-14 -23,-32 -23,-54 0,-14 3,-27 10,-39 7,-11 17,-20 29,-26 13,-6 31,-11 54,-16 32,-6 54,-11 66,-16l0 -7c0,-13 -3,-23 -10,-28 -6,-6 -18,-9 -36,-9 -12,0 -22,3 -29,8 -6,4 -12,13 -16,25zm91 55c-9,3 -22,6 -41,10 -19,4 -31,8 -37,12 -9,6 -13,14 -13,24 0,9 3,17 10,24 7,7 16,11 27,11 12,0 24,-4 35,-12 8,-6 14,-14 16,-23 2,-6 3,-17 3,-33l0 -13zm213 -134l67 0 0 94 98 0 0 -94 68 0 0 256 -68 0 0 -107 -98 0 0 107 -67 0 0 -256zm380 0l68 0 0 105c11,-2 19,-5 24,-11 5,-5 10,-18 17,-37 9,-25 18,-41 28,-48 11,-7 24,-11 41,-11 5,0 14,1 27,2l0 44c-18,0 -29,2 -34,5 -5,4 -11,14 -16,32 -8,24 -20,38 -35,44 22,5 40,24 55,56 0,1 1,3 2,5l38 70 -73 0 -33 -74c-7,-15 -13,-25 -18,-29 -5,-4 -13,-6 -23,-6l0 109 -68 0 0 -256zm302 0l232 0 0 55 -82 0 0 201 -68 0 0 -201 -82 0 0 -55zm347 162l0 -68 133 0 0 68 -133 0zm256 -259l281 0 0 353 -71 0 0 -294 -138 0 0 294 -72 0 0 -353zm584 272l68 12c-9,24 -22,43 -41,56 -19,13 -42,20 -70,20 -45,0 -78,-15 -99,-44 -17,-23 -26,-53 -26,-89 0,-42 11,-75 34,-99 22,-25 50,-37 84,-37 38,0 68,13 90,38 22,25 32,64 31,116l-169 0c1,20 6,36 16,47 11,11 24,17 39,17 11,0 20,-3 27,-9 7,-6 13,-15 16,-28zm4 -68c0,-20 -5,-35 -15,-45 -10,-11 -21,-16 -35,-16 -15,0 -27,6 -37,17 -9,10 -14,25 -14,44l101 0zm168 -107l232 0 0 55 -82 0 0 201 -68 0 0 -201 -82 0 0 -55zm503 175l68 12c-9,24 -23,43 -41,56 -19,13 -43,20 -71,20 -44,0 -77,-15 -99,-44 -16,-23 -25,-53 -25,-89 0,-42 11,-75 33,-99 22,-25 51,-37 84,-37 38,0 69,13 91,38 22,25 32,64 31,116l-169 0c0,20 6,36 16,47 10,11 23,17 39,17 11,0 19,-3 27,-9 7,-6 12,-15 16,-28zm4 -68c-1,-20 -6,-35 -15,-45 -10,-11 -22,-16 -35,-16 -15,0 -27,6 -37,17 -10,10 -14,25 -14,44l101 0zm203 -107l63 0 0 38c8,-13 19,-24 33,-32 14,-8 30,-12 47,-12 30,0 55,12 76,36 20,23 31,55 31,97 0,43 -11,76 -32,100 -21,24 -46,36 -76,36 -14,0 -27,-3 -38,-9 -12,-5 -24,-15 -36,-29l0 129 -68 0 0 -354zm67 124c0,29 5,50 17,64 11,14 25,21 41,21 16,0 29,-7 39,-19 11,-13 16,-34 16,-63 0,-27 -5,-47 -16,-60 -11,-13 -24,-19 -40,-19 -16,0 -30,6 -41,19 -11,13 -16,32 -16,57zm511 -230l46 0c-1,21 -6,36 -16,46 -9,11 -32,16 -68,16 -4,0 -9,0 -13,0l-9 0c-21,0 -39,2 -52,7 -14,5 -25,14 -34,28 -8,13 -13,35 -13,66 10,-19 23,-33 39,-42 15,-9 34,-14 56,-14 34,0 62,13 86,39 23,26 35,57 35,91 0,36 -13,67 -37,93 -25,26 -57,39 -96,39 -28,0 -51,-7 -72,-20 -21,-13 -35,-31 -44,-53 -9,-23 -14,-61 -14,-113 0,-61 12,-106 34,-133 23,-26 63,-40 119,-40l34 0c10,0 16,-3 19,-10zm-136 236c0,24 6,42 18,56 11,14 25,20 42,20 18,0 33,-7 45,-21 11,-14 17,-32 17,-55 0,-22 -6,-41 -18,-55 -11,-14 -26,-21 -43,-21 -17,0 -31,7 -43,21 -12,14 -18,32 -18,55zm292 -130l72 0 62 182 60 -182 70 0 -91 247 -16 44c-6,15 -12,26 -17,34 -5,8 -12,15 -19,19 -7,5 -15,9 -25,12 -11,3 -22,4 -35,4 -13,0 -26,-1 -39,-4l-6 -53c11,2 21,3 29,3 16,0 28,-4 35,-14 8,-9 14,-21 18,-35l-98 -257zm381 0l63 0 0 38c9,-13 20,-24 34,-32 14,-8 29,-12 46,-12 30,0 55,12 76,36 21,23 31,55 31,97 0,43 -10,76 -31,100 -21,24 -46,36 -76,36 -14,0 -27,-3 -39,-9 -11,-5 -23,-15 -36,-29l0 129 -68 0 0 -354zm67 124c0,29 6,50 17,64 11,14 25,21 42,21 15,0 28,-7 39,-19 10,-13 16,-34 16,-63 0,-27 -6,-47 -17,-60 -10,-13 -24,-19 -40,-19 -16,0 -30,6 -41,19 -11,13 -16,32 -16,57zm316 -124l174 0 0 55 -106 0 0 201 -68 0 0 -256zm439 175l68 12c-9,24 -22,43 -41,56 -19,13 -42,20 -70,20 -45,0 -78,-15 -99,-44 -17,-23 -26,-53 -26,-89 0,-42 12,-75 34,-99 22,-25 50,-37 84,-37 38,0 68,13 90,38 22,25 33,64 32,116l-170 0c1,20 6,36 17,47 10,11 23,17 38,17 11,0 20,-3 27,-9 7,-6 13,-15 16,-28zm4 -68c0,-20 -5,-35 -15,-45 -9,-11 -21,-16 -35,-16 -15,0 -27,6 -36,17 -10,10 -15,25 -15,44l101 0z"/>
   <path class="fil0" d="M2104 141l-40 51c27,68 39,121 15,192 -41,120 -37,21 -36,191l-114 33 99 68c26,172 11,863 11,1123 0,160 11,224 -35,364l-89 12c17,114 6,32 -18,68 20,85 59,204 -38,237 -111,-163 92,-294 -146,-470l12 76 -65 -40c-32,-13 20,-65 -15,5 -120,35 53,61 -233,61l27 -217c61,-22 -15,108 31,-21 35,12 0,5 -25,-94l-24 10c-2,2 35,64 -114,-34 -83,-115 -14,-252 -113,-439 -41,-77 -8,-36 -26,-109 -22,-90 -23,-28 -60,-90 -54,-91 -11,-175 -5,-266 -78,-83 -59,-33 -64,-223 -48,124 42,90 -80,223 15,98 49,118 24,224 -38,160 -65,6 -85,214 -108,86 -27,35 -88,123 -43,62 -66,42 -88,136l-46 17c-97,-96 -38,-186 -44,-318 -30,-42 -69,-68 -88,-97 -43,-65 -4,-55 -49,-136 -14,257 -144,76 -132,344 12,252 -27,-5 -60,371 -13,152 -75,198 -67,362 6,107 -11,311 -24,420l-52 21 0 104 10581 0 0 -338 -261 0c-50,-206 20,-222 38,-257l-59 -51c-21,44 -3,22 -71,42 42,70 2,18 74,75l-6 190 -270 -1c-15,-77 27,-29 -20,-120 -20,-39 -50,-77 -74,-124 -42,-80 -89,-165 -135,-243 -71,-120 -254,-388 -252,-514 -111,49 -62,52 -200,20 -74,-17 -145,-36 -220,-43 -33,-8 -16,2 -53,-15 -43,-20 -23,-16 -45,-34l-72 26c3,110 393,817 409,1093 -91,-14 -110,-50 -150,-121 -138,239 -131,91 -363,109 -3,-80 -5,-90 -50,-154l-38 163 -145 -2c-28,-70 -30,-242 -74,-350 -109,528 26,344 -451,346 30,-142 109,-488 203,-578 2,-106 89,-201 122,-305l-139 -69 -27 45 -74 -41 -350 -75c-96,-50 -16,0 -69,-82 -102,-4 -69,-6 -151,-48 65,81 56,66 162,103 -9,103 -349,864 -407,912l-27 81c-93,20 -199,13 -277,36 -176,52 -43,32 -296,34l-1 179 -348 -154 -13 33 80 74c-174,-1 -181,-40 -289,-63 6,42 5,9 -35,14l-36 -20c-13,55 13,78 -76,84 0,0 -86,-22 -116,-23 -85,-3 -187,1 -275,1l0 -331 66 0 -35 -69c0,-1 1,-6 2,-8l-55 16c-65,38 38,37 -66,39 0,-99 36,-96 0,-143l-33 -23c0,21 21,-1 -10,35 -50,59 8,8 -67,54l-11 -92c-19,-275 -112,28 -83,-423 6,-90 -46,-117 -70,-174 -62,-149 2,-228 -199,-322 -19,-114 17,-156 -67,-215 -113,106 -3,135 -81,219 -119,130 -93,-11 -168,277 -18,71 -28,42 -55,96 -42,89 -21,141 -24,238 -36,-23 -47,-42 -71,-75 -128,183 -99,94 -101,383 -223,162 -208,38 -208,337 -46,-1 -98,-2 -143,-14 -89,-22 -57,-13 -97,-81 -87,34 -168,-15 -286,-17 -58,-1 -113,5 -173,-6 -8,-1 -67,-15 -73,-17l-70 -26 8 -242 -88 -63c-5,-148 -42,-307 -90,-428 -3,5 -8,7 -9,15 -1,9 -6,12 -8,16 -57,162 -69,234 -71,393 -63,49 -72,33 -71,131 0,77 10,110 0,194 -188,63 -424,58 -596,36 -97,-13 -3,13 -82,10 -91,-3 11,-4 -86,-34 -57,74 -65,73 -162,92 -3,-6 -11,-31 -14,-35 -31,-43 -2,-10 -32,-36 -72,-60 -11,57 -60,-54l-45 -1449 101 -62 -112 -58c-6,-70 10,-154 -50,-256 30,-23 25,14 31,-26 2,-14 -16,-87 -19,-104 -42,-21 5,-22 -61,5l10 -132c-2,0 -72,-34 -26,98z"/>
   <path class="fil0" d="M6688 1576c-54,-30 -45,-34 -70,-112 -29,-88 -49,-52 46,-74l24 186zm-1083 374l11 92c75,-46 17,5 67,-54 31,-36 10,-14 10,-35l33 23c36,47 0,44 0,143 104,-2 1,-1 66,-39l55 -16c-1,2 -2,7 -2,8l35 69 -66 0 0 331c88,0 190,-4 275,-1 30,1 116,23 116,23 89,-6 63,-29 76,-84l-8 -21 -87 -26c-32,-93 -45,-274 60,-341l61 195 -57 69 32 92 35 52c40,-5 41,28 35,-14l-15 -110c56,-57 86,-84 165,-83 -5,119 -108,132 59,182l13 -33 7 -83c120,-84 61,-136 126,-203 25,-25 118,-76 169,-123 75,86 36,96 151,70 -69,-42 -50,-9 -76,-79 79,-50 111,-64 212,-41 20,99 21,86 -11,172 19,24 -36,22 51,18 54,-108 38,-121 -17,-236l-116 -24c163,-130 206,96 214,123l44 -81 -123 -121c-135,-21 -142,36 -208,-100 -35,-71 -73,-120 -87,-196 98,-11 99,19 173,-52l-216 -146c-174,89 -93,96 -313,90 -50,-94 46,-105 -91,-111l-77 406c-29,124 -13,28 -53,101 -52,94 19,147 -126,208 -66,28 -55,1 -90,62l-39 97 -239 -152 16 -248c-74,-52 -87,-73 -109,-132 -23,45 -99,139 -105,155 -28,76 59,169 -36,204z"/>
   <path class="fil0" d="M1307 1756c149,98 112,36 114,34l24 -10c25,99 60,106 25,94 -46,129 30,-1 -31,21l-27 217c286,0 113,-26 233,-61 35,-70 -17,-18 15,-5l65 40 -12 -76c-87,-99 -37,-133 -44,-237 -7,-106 -28,18 -59,-172 -23,-141 28,104 -6,-41l-15 -35c20,204 -51,176 -21,335l14 25c1,2 -3,15 -3,12 1,-3 -5,8 -13,14l-22 -48c-62,-129 -1,-176 -1,-308 -127,-114 -91,-48 -135,-292 -6,467 -164,56 -76,405 33,132 12,60 -25,88z"/>
   <path class="fil0" d="M9289 1184c73,-43 60,-39 150,-27 -12,-102 2,-17 37,-61 2,-2 5,-9 7,-12l1 -34c-80,14 -137,69 -195,134z"/>
   <path class="fil0" d="M9705 1296l124 -84 -82 -10c-4,4 -8,6 -9,14l-33 80z"/>
   <path class="fil0" d="M2381 2250l2 -96c-82,-13 -52,0 -108,-29 49,111 -12,-6 60,54 30,26 1,-7 32,36 3,4 11,29 14,35z"/>
   <path class="fil0" d="M9187 1224c22,18 2,14 45,34 37,17 20,7 53,15l-43 -71 -55 22z"/>
   <path class="fil0" d="M1897 2243c24,-36 35,46 18,-68l89 -12 -105 -11 -2 91z"/>
   <polygon class="fil0" points="2064,192 2104,141 2037,134 "/>
   <path class="fil0" d="M9829 1212l86 -65c-101,12 -64,21 -86,65z"/>
   <path class="fil0" d="M1568 1860l-24 3 22 48c8,-6 14,-17 13,-14 0,3 4,-10 3,-12l-14 -25z"/>
   <polygon class="fil0" points="6273,2389 6281,2410 6317,2430 6282,2378 "/>
  </g>
 </g>
</svg>
