<?xml version="1.0" encoding="UTF-8"?>
<!DOCTYPE svg PUBLIC "-//W3C//DTD SVG 1.1//EN" "http://www.w3.org/Graphics/SVG/1.1/DTD/svg11.dtd">
<!-- Creator: CorelDRAW X8 -->
<svg xmlns="http://www.w3.org/2000/svg" xml:space="preserve" width="33.8666mm" height="33.8666mm" version="1.1" style="shape-rendering:geometricPrecision; text-rendering:geometricPrecision; image-rendering:optimizeQuality; fill-rule:evenodd; clip-rule:evenodd"
viewBox="0 0 3387 3387"
 xmlns:xlink="http://www.w3.org/1999/xlink">
 <defs>
  <style type="text/css">
   <![CDATA[
    .fil0 {fill:black}
   ]]>
  </style>
 </defs>
 <g id="Слой_x0020_1">
  <metadata id="CorelCorpID_0Corel-Layer"/>
  <g id="_858630016">
   <path class="fil0" d="M142 488c0,-141 -33,-357 178,-357l2763 0c280,0 155,441 152,585 -3,119 26,91 26,262l0 2094c0,104 -74,178 -178,178l-2763 0c-104,0 -178,-74 -178,-178l26 -2323c3,-119 -26,-91 -26,-261zm-134 -179l0 2763c0,208 104,312 312,312l2763 0c208,0 312,-104 312,-312l0 -2763c0,-208 -104,-312 -312,-312l-2763 0c-208,0 -312,104 -312,312z"/>
   <path class="fil0" d="M2682 2805l0 -1337c69,46 134,59 134,178l0 981c0,137 -81,126 -134,178zm267 -223c0,-686 127,-1252 -356,-1292l-33 56c-109,237 -51,573 -57,1147 -2,233 -73,514 158,478 174,-28 288,-205 288,-389z"/>
   <path class="fil0" d="M1657 2805l0 -1337c99,26 134,10 134,134l0 1069c0,153 -38,90 -134,134zm-134 -1293l0 1471c547,-12 401,-485 401,-1426 0,-160 -194,-254 -356,-267 -23,100 -45,102 -45,222z"/>
   <path class="fil0" d="M588 2181l0 -267 534 0c0,345 23,247 -44,534 -140,33 -490,162 -490,-267zm-134 44c0,221 148,384 356,402l0 222 -178 0 0 134c207,0 345,25 490,-45 -100,-136 29,-71 -178,-89l0 -222c390,-91 312,-346 312,-847l-802 0 0 445z"/>
   <path class="fil0" d="M2147 2805l0 -802c195,103 137,86 137,400 0,494 -12,345 -137,402zm-133 -802l0 980c675,-15 481,-1114 178,-1114 -117,0 -178,-4 -178,134z"/>
   <path class="fil0" d="M320 532c207,-17 78,48 178,-89 -100,-137 29,-72 -178,-89l0 178z"/>
   <path class="fil0" d="M632 443l80 98c146,-109 81,20 98,-187 -104,9 -162,-5 -178,89z"/>
   <path class="fil0" d="M2905 532l98 -80c-109,-146 20,-81 -187,-98 16,199 -49,82 89,178z"/>
   <polygon class="fil0" points="320,799 409,799 409,666 320,666 "/>
   <polygon class="fil0" points="543,799 632,799 632,666 543,666 "/>
   <polygon class="fil0" points="766,799 855,799 855,666 766,666 "/>
   <polygon class="fil0" points="1434,799 1523,799 1523,666 1434,666 "/>
   <polygon class="fil0" points="1657,799 1746,799 1746,666 1657,666 "/>
   <polygon class="fil0" points="1880,799 1969,799 1969,666 1880,666 "/>
   <polygon class="fil0" points="2548,799 2637,799 2637,666 2548,666 "/>
   <polygon class="fil0" points="2771,799 2860,799 2860,666 2771,666 "/>
   <polygon class="fil0" points="2994,799 3083,799 3083,666 2994,666 "/>
   <polygon class="fil0" points="989,799 1078,799 1078,666 989,666 "/>
   <polygon class="fil0" points="1211,799 1301,799 1301,666 1211,666 "/>
   <polygon class="fil0" points="2103,799 2192,799 2192,666 2103,666 "/>
   <polygon class="fil0" points="2325,799 2415,799 2415,666 2325,666 "/>
  </g>
 </g>
</svg>
