<?xml version="1.0" encoding="UTF-8"?>
<!DOCTYPE svg PUBLIC "-//W3C//DTD SVG 1.1//EN" "http://www.w3.org/Graphics/SVG/1.1/DTD/svg11.dtd">
<!-- Creator: CorelDRAW X8 -->
<svg xmlns="http://www.w3.org/2000/svg" xml:space="preserve" width="33.8666mm" height="33.8666mm" version="1.1" style="shape-rendering:geometricPrecision; text-rendering:geometricPrecision; image-rendering:optimizeQuality; fill-rule:evenodd; clip-rule:evenodd"
viewBox="0 0 3387 3387"
 xmlns:xlink="http://www.w3.org/1999/xlink">
 <defs>
  <style type="text/css">
   <![CDATA[
    .fil0 {fill:black}
   ]]>
  </style>
 </defs>
 <g id="Слой_x0020_1">
  <metadata id="CorelCorpID_0Corel-Layer"/>
  <g id="_858628096">
   <path class="fil0" d="M793 3170l1786 0 0 71 -1786 0 0 -71zm678 -1894l429 0 0 71 -429 0 0 -71zm-178 -36l-715 0c0,-456 -154,-1075 428,-1073 2128,9 1780,-464 1788,2325 2,457 -177,67 14,528l-2230 7c169,-471 2,-92 -1,-499l1 -1145 715 0c126,34 71,36 178,107l429 0c76,-50 74,-79 151,-99 148,-40 106,61 207,-79 -93,-130 -36,-47 -176,-75 -129,-25 -72,-31 -182,-104l-429 0c-95,70 -63,76 -178,107zm-608 1930l12 191c172,53 1805,53 1966,-1l28 -190c336,-6 245,-339 245,-894 0,-393 0,-786 0,-1179 0,-1156 -85,-1072 -1250,-1072 -294,0 -834,-60 -1045,99 -270,202 -206,660 -206,973l0 1716c-1,227 6,353 250,357z"/>
   <path class="fil0" d="M971 1061l36 0c168,0 165,17 179,-142l-393 0c13,158 10,142 178,142z"/>
   <path class="fil0" d="M793 1705l285 0c144,0 106,30 179,-72 -105,-48 -49,-36 -179,-36l-285 0 0 108z"/>
   <path class="fil0" d="M2365 1383l321 0c-14,-159 -10,-143 -178,-143l-143 0 0 143z"/>
   <path class="fil0" d="M1686 2955c106,-76 103,-136 26,-241 -146,33 -141,159 -26,241z"/>
   <path class="fil0" d="M1921 2957c160,-97 202,-232 -21,-252l21 252z"/>
   <path class="fil0" d="M1436 2955l43 -249c-224,22 -193,151 -43,249z"/>
   <path class="fil0" d="M814 2957c127,-82 86,-97 86,-252l-107 0 21 252z"/>
   <path class="fil0" d="M1100 2957c126,-82 86,-97 86,-252l-108 0 22 252z"/>
   <path class="fil0" d="M2207 2957c127,-82 87,-97 86,-252l-107 0 21 252z"/>
   <path class="fil0" d="M2493 2957c127,-82 86,-97 86,-252l-107 0 21 252z"/>
  </g>
 </g>
</svg>
