<?xml version="1.0" encoding="UTF-8"?>
<!DOCTYPE svg PUBLIC "-//W3C//DTD SVG 1.1//EN" "http://www.w3.org/Graphics/SVG/1.1/DTD/svg11.dtd">
<!-- Creator: CorelDRAW X8 -->
<svg xmlns="http://www.w3.org/2000/svg" xml:space="preserve" width="33.8666mm" height="33.8666mm" version="1.1" style="shape-rendering:geometricPrecision; text-rendering:geometricPrecision; image-rendering:optimizeQuality; fill-rule:evenodd; clip-rule:evenodd"
viewBox="0 0 3387 3387"
 xmlns:xlink="http://www.w3.org/1999/xlink">
 <defs>
  <style type="text/css">
   <![CDATA[
    .fil0 {fill:black}
   ]]>
  </style>
 </defs>
 <g id="Слой_x0020_1">
  <metadata id="CorelCorpID_0Corel-Layer"/>
  <g id="_850286784">
   <path class="fil0" d="M1843 1984l99 0 0 198 -99 0 0 -198zm-854 194c468,4 426,-162 521,644 19,155 56,164 -64,251 -165,-121 -86,-460 -198,-693l-445 0c15,690 538,693 -545,693 -139,0 -91,-21 -148,-99 117,-160 320,-99 594,-99 -84,-358 -298,-486 -185,-823 95,-284 225,-711 482,-711 221,0 400,224 445,396 272,0 428,-60 545,99 -418,235 -783,-192 -792,-198l-210 540zm1052 -936c-152,144 -99,108 -99,396l-99 0c0,-288 52,-252 -100,-396l298 0zm0 0l27 -107 -27 107zm-298 0l-56 -97 56 97zm-148 -99c0,320 148,34 148,495 -575,-13 -8,-396 -891,-396 -236,0 -495,845 -495,1039 0,158 136,378 198,495 -249,0 -544,-56 -544,198 0,282 406,198 841,198 358,0 114,-513 99,-693l198 0c56,240 32,693 297,693 312,0 189,-481 138,-781 -51,-299 -90,-308 -435,-308l61 -195c302,81 -113,96 533,96 0,241 -33,347 149,347 278,0 149,-685 149,-891 0,-117 148,-30 148,-297 0,-119 -80,-146 -148,-248 -143,58 -99,-33 -99,248l-99 0c0,-281 43,-190 -100,-248 -68,102 -148,129 -148,248z"/>
   <path class="fil0" d="M3377 2083l0 -99c-487,0 -487,-396 0,-396l0 -99c-223,0 -841,126 -841,-148 0,-24 17,-123 17,-128 -18,-227 -562,-169 824,-169l0 -99c-248,0 -560,-18 -799,-6 -327,17 -244,63 -139,448 117,426 330,10 468,325 139,314 -143,371 470,371z"/>
   <path class="fil0" d="M902 796c116,-219 28,-131 247,-247 220,116 132,28 248,247 -116,219 -28,132 -248,248 -219,-116 -131,-29 -247,-248zm-99 0c0,476 693,476 693,0 0,-475 -693,-475 -693,0z"/>
   <path class="fil0" d="M2882 598c0,-127 79,-8 30,0 -1,0 -30,138 -30,0zm248 -396l0 149c-382,0 -347,73 -347,396l248 0 0 -149 346 -99 0 -49c-58,-157 108,-71 -148,-99l0 -149c259,-22 89,47 148,-99l-396 0c45,121 -104,93 149,99z"/>
   <path class="fil0" d="M3080 1143c0,58 107,111 77,0 -30,-112 126,-2 -23,-15 -62,-6 -54,-86 -54,15z"/>
   <path class="fil0" d="M3278 1143c0,58 107,111 77,0 -30,-112 126,-2 -23,-15 -62,-6 -54,-86 -54,15z"/>
   <path class="fil0" d="M2684 1143c0,58 107,111 77,0 -30,-112 126,-2 -23,-15 -62,-6 -54,-86 -54,15z"/>
   <path class="fil0" d="M2882 1143c0,58 107,111 77,0 -30,-112 126,-2 -23,-15 -62,-6 -54,-86 -54,15z"/>
  </g>
 </g>
</svg>
