<?xml version="1.0" encoding="UTF-8"?>
<!DOCTYPE svg PUBLIC "-//W3C//DTD SVG 1.1//EN" "http://www.w3.org/Graphics/SVG/1.1/DTD/svg11.dtd">
<!-- Creator: CorelDRAW X8 -->
<svg xmlns="http://www.w3.org/2000/svg" xml:space="preserve" width="35mm" height="35mm" version="1.1" style="shape-rendering:geometricPrecision; text-rendering:geometricPrecision; image-rendering:optimizeQuality; fill-rule:evenodd; clip-rule:evenodd"
viewBox="0 0 3500 3500"
 xmlns:xlink="http://www.w3.org/1999/xlink">
 <defs>
  <style type="text/css">
   <![CDATA[
    .fil0 {fill:black}
    .fil1 {fill:#1D2225}
   ]]>
  </style>
 </defs>
 <g id="Слой_x0020_1">
  <metadata id="CorelCorpID_0Corel-Layer"/>
  <path class="fil0" d="M270 3256l-6 -2299 138 5 1151 -1 1768 -60 35 2409 -630 -78 -972 12 -1484 12zm3060 -2995l-12 262 4 316 -1769 -59 -1151 -2 -137 11 -11 -507 148 6 124 -1 2804 -26zm-3216 3090c128,146 1315,71 1604,71 320,0 1460,59 1651,-86 64,-170 54,-2147 57,-2515 6,-844 347,-684 -1647,-698 -378,-2 -752,-5 -1130,-10 -670,-8 -546,-79 -546,663 0,403 -45,2349 11,2575z"/>
  <path class="fil0" d="M3011 2634c28,71 27,211 26,312l-46 -33c-703,-99 -1669,-40 -2398,-40l-14 -1240 2426 -37 6 1038zm25 326c63,-116 38,-879 57,-1086 42,-486 49,-386 -656,-399 -292,-6 -1870,-111 -1976,32 -68,92 -15,888 -25,1083 -30,606 56,457 603,457 326,0 1854,71 1997,-87z"/>
  <path class="fil0" d="M692 1236c125,99 2061,44 2179,-47 -162,-107 -1388,-89 -1708,-89 -175,0 -472,-69 -471,136z"/>
  <path class="fil0" d="M2941 630c-10,-85 8,3 -27,-63l-16 -28c-44,-86 40,58 -14,-32 -69,-116 -133,-34 -175,15 -25,249 212,203 232,108z"/>
  <path class="fil0" d="M807 555c-86,-207 -185,-61 -195,-24 -39,138 102,252 222,107l-27 -83z"/>
  <path class="fil0" d="M1647 647c55,7 107,10 161,-2 68,-16 84,-34 116,-76 -53,-113 -178,-101 -286,-84l9 162z"/>
  <g id="_1075459856">
   <path class="fil1" d="M2382 2278c-37,-22 -17,-28 -54,-47 -23,41 -74,78 -118,135 -80,103 -371,267 -509,134 -85,-82 -87,-285 -21,-401 80,-139 196,-161 312,-190l-117 -77c-69,-3 -172,-108 -427,-53 -516,110 -712,725 -412,900 191,112 660,98 884,45 112,-27 479,-132 519,-257 18,-57 1,-110 -32,-151 -14,-17 -22,-20 -25,-38z"/>
   <path class="fil1" d="M2497 2067l70 4c16,-29 30,-26 34,-66 3,-49 -17,-49 -31,-74 0,0 -34,-125 -107,-72 -41,30 4,67 -91,108 -171,72 -312,-65 -499,14 -269,115 -237,445 -116,512 91,50 230,-12 302,-55 165,-100 261,-308 438,-371z"/>
   <path class="fil1" d="M1901 1806c-25,3 -2,6 17,16 153,89 93,90 289,121 68,11 46,-6 88,-24 35,-16 60,12 89,-17 53,-55 -3,-97 -25,-181 -31,-18 -80,-52 -102,16 -18,56 -30,65 -83,85 -104,38 -180,-6 -273,-16z"/>
  </g>
 </g>
</svg>
