<?xml version="1.0" encoding="UTF-8"?>
<!DOCTYPE svg PUBLIC "-//W3C//DTD SVG 1.1//EN" "http://www.w3.org/Graphics/SVG/1.1/DTD/svg11.dtd">
<!-- Creator: CorelDRAW X8 -->
<svg xmlns="http://www.w3.org/2000/svg" xml:space="preserve" width="33.8666mm" height="33.8666mm" version="1.1" style="shape-rendering:geometricPrecision; text-rendering:geometricPrecision; image-rendering:optimizeQuality; fill-rule:evenodd; clip-rule:evenodd"
viewBox="0 0 3387 3387"
 xmlns:xlink="http://www.w3.org/1999/xlink">
 <defs>
  <style type="text/css">
   <![CDATA[
    .fil0 {fill:black}
   ]]>
  </style>
 </defs>
 <g id="Слой_x0020_1">
  <metadata id="CorelCorpID_0Corel-Layer"/>
  <g id="_858625408">
   <path class="fil0" d="M159 2805l0 -1523c0,-285 278,-441 601,-441 493,0 2014,-86 2257,108 94,74 188,182 188,333l0 1523c0,265 -287,441 -561,441 -497,0 -2053,87 -2297,-108 -93,-74 -188,-181 -188,-333zm813 -2766l67 0c135,54 289,405 643,642 140,-94 277,-211 321,-401l200 80c-46,174 -29,79 -182,178 -90,59 -127,105 -179,183 853,0 1524,-123 1524,761 0,862 182,1885 -682,1885l-2004 0c-443,0 -682,-310 -682,-762 0,-1888 -147,-1884 1524,-1884 -86,-128 -196,-216 -310,-332l-181 -139c-132,-87 -94,24 -111,-171 18,-19 35,-32 52,-40z"/>
   <path class="fil0" d="M560 2605c0,-1625 -300,-1363 1723,-1363 461,0 321,554 321,1363 0,130 -174,240 -321,240l-1403 0c-146,0 -320,-110 -320,-240zm-161 -882c0,275 -38,868 95,1068 57,87 215,175 346,175l1484 0c555,0 440,-762 440,-1243 0,-302 -100,-601 -440,-601l-1484 0c-340,0 -441,299 -441,601z"/>
   <path class="fil0" d="M2885 1723c0,340 377,-80 120,-80 -66,0 -120,24 -120,80z"/>
   <path class="fil0" d="M760 1563c54,30 44,22 120,40l0 -121c-70,17 -107,6 -120,81z"/>
   <path class="fil0" d="M760 2565c54,30 44,22 120,40l0 -120c-70,16 -107,5 -120,80z"/>
   <path class="fil0" d="M760 2364c54,31 44,22 120,40l0 -120c-70,17 -107,5 -120,80z"/>
   <path class="fil0" d="M760 2164c54,30 44,22 120,40l0 -120c-70,17 -107,5 -120,80z"/>
   <path class="fil0" d="M760 1763c54,30 44,22 120,40l0 -120c-70,17 -107,5 -120,80z"/>
   <path class="fil0" d="M760 1964c54,30 44,21 120,40l0 -121c-70,17 -107,5 -120,81z"/>
   <path class="fil0" d="M3005 2164c30,-54 22,-44 40,-120l-120 0c26,110 -16,62 80,120z"/>
   <path class="fil0" d="M3005 2364c30,-54 22,-44 40,-120l-120 0c26,110 -16,63 80,120z"/>
  </g>
 </g>
</svg>
